<svg width="530" height="190" viewBox="0 0 530 190" fill="none" xmlns="http://www.w3.org/2000/svg">
<path d="M49.1593 16.7769V31.4681H17.175V48.9104H48.2459V63.0456H17.175V80.4879H50.1775V95.1792H0V16.7769H49.1593Z" fill="#005DEE"/>
<path d="M154.609 41.5722C158.163 45.5484 159.94 51.0774 159.94 58.1592V95.179H142.975V62.2081C142.975 54.1104 139.649 50.0471 132.996 50.0471C129.868 50.0471 126.997 51.0484 124.4 53.0656C121.803 55.0682 120.269 57.5062 119.813 60.3505V95.179H102.848V62.2081C102.848 54.1104 99.5219 50.0471 92.8695 50.0471C90.6521 50.0471 88.5105 50.584 86.445 51.6289C84.3794 52.6737 82.7239 54.1249 81.4633 55.9534C80.2027 57.7819 79.5648 59.7555 79.5648 61.8743V95.1645H62.7212V36.9138H78.3042L79.2154 45.9983C81.357 43.0088 84.1516 40.5273 87.5841 38.5537C91.0166 36.5801 95.0414 35.5933 99.613 35.5933C104.185 35.5933 108.073 36.6526 111.247 38.7714C114.421 40.8901 116.73 43.8795 118.188 47.7542C120.178 44.402 123.003 41.5286 126.663 39.1632C130.339 36.7977 134.682 35.6078 139.725 35.6078C146.073 35.6078 151.009 37.5959 154.564 41.5722H154.609Z" fill="#005DEE"/>
<path d="M289.403 94.287C284.196 91.5965 280.133 87.854 277.216 83.0593C274.299 78.2646 272.84 72.8687 272.84 66.9016C272.84 60.9345 274.299 55.5536 277.216 50.789C280.133 46.0244 284.196 42.2968 289.403 39.6214C294.61 36.931 300.57 35.5933 307.282 35.5933C313.995 35.5933 320.065 36.931 325.272 39.6214C330.479 42.3118 334.541 46.0244 337.459 50.789C340.376 55.5536 341.834 60.9195 341.834 66.9016C341.834 72.8837 340.376 78.2646 337.459 83.0593C334.541 87.869 330.479 91.6116 325.272 94.287C320.065 96.9774 314.058 98.3151 307.282 98.3151C300.507 98.3151 294.61 96.9774 289.403 94.287ZM319.296 78.5201C322.339 75.529 323.86 71.6512 323.86 66.8866C323.86 62.1219 322.339 58.2441 319.296 55.253C316.254 52.262 312.286 50.774 307.408 50.774C302.53 50.774 298.437 52.262 295.394 55.253C292.351 58.2441 290.83 62.1219 290.83 66.8866C290.83 71.6512 292.351 75.6192 295.394 78.5652C298.437 81.5111 302.389 82.9841 307.282 82.9841C312.176 82.9841 316.254 81.4961 319.296 78.5051V78.5201Z" fill="#005DEE"/>
<path d="M401.42 35.6082L375.931 102.142C373.6 108.229 370.597 112.764 366.907 115.763C363.216 118.761 358.375 120.268 352.354 120.268C348.365 120.268 344.794 119.626 341.642 118.358L343.554 104.514C345.362 105.111 347.229 105.409 349.187 105.409C351.891 105.409 354.192 104.813 356.06 103.604C357.942 102.396 359.436 100.382 360.572 97.5178L362.484 92.9082L338.698 35.5933H356.851L371.06 74.3204L384.253 35.5933H401.39L401.42 35.6082Z" fill="#005DEE"/>
<path d="M467.278 65.4848C467.278 59.6223 468.506 54.4276 470.946 49.9157C473.402 45.4038 476.931 41.8862 481.551 39.3779C486.17 36.8548 491.603 35.5933 497.818 35.5933C504.034 35.5933 509.697 36.8845 514.546 39.4818C519.411 42.0792 523.202 45.76 525.918 50.5391C528.634 55.3181 530 60.8245 530 67.0581C530 73.5292 528.588 79.0949 525.749 83.7552C522.91 88.4156 518.797 92.0073 513.395 94.5304C507.993 97.0536 501.594 98.3151 494.212 98.3151C484.958 98.3151 476.763 96.6974 469.611 93.4618L470.777 77.0022C473.893 78.3528 477.361 79.4214 481.213 80.2229C485.065 81.0243 488.733 81.4102 492.232 81.4102C496.821 81.4102 500.412 80.6978 503.021 79.273C505.63 77.8481 507.318 75.5922 508.1 72.5051H467.877C467.493 70.8576 467.294 68.5274 467.294 65.5145L467.278 65.4848Z" fill="#00A889"/>
<path d="M511.183 60.3644C510.249 56.3496 508.655 53.3044 506.356 51.2743C503.996 49.1835 501.191 48.1382 497.911 48.1382C494.631 48.1382 492.026 49.3199 489.773 51.6985C487.52 54.0771 486.294 57.0768 486.095 60.6826H486.233C489.712 57.8949 494.126 56.2284 498.923 56.2284C503.72 56.2284 507.781 57.7889 511.183 60.3644Z" fill="white"/>
<path d="M463.544 72.5051H423.32C424.103 75.5922 425.791 77.8481 428.4 79.273C431.009 80.6978 434.6 81.4102 439.189 81.4102C442.688 81.4102 446.355 81.0095 450.208 80.2229C454.06 79.4362 457.528 78.3676 460.643 77.0022L461.81 93.4618C454.658 96.6974 446.463 98.3151 437.209 98.3151C429.827 98.3151 423.428 97.0536 418.026 94.5304C412.623 92.0073 408.495 88.4156 405.671 83.7552C402.832 79.0949 401.42 73.5292 401.42 67.0581C401.42 60.587 402.786 55.3181 405.503 50.5391C408.219 45.76 412.01 42.0792 416.875 39.4818C421.724 36.8845 427.31 35.5933 433.602 35.5933C439.895 35.5933 445.251 36.8548 449.87 39.3779C454.489 41.9011 458.034 45.4186 460.474 49.9157C462.93 54.4276 464.142 59.6075 464.142 65.4848C464.142 68.4977 463.943 70.8279 463.559 72.4754L463.544 72.5051Z" fill="#00D7C4"/>
<path d="M445.326 51.4609C442.724 49.2653 439.637 48.1382 436.033 48.1382C432.162 48.1382 428.84 49.1774 426.051 51.2706C423.261 53.3638 421.334 56.4962 420.237 60.6826H441.674C440.671 59.7018 440.045 58.3698 440.045 56.9061C440.045 54.0664 442.364 51.7537 445.326 51.4609Z" fill="white"/>
<path d="M288.506 125.584H267.541V189.412H250.128V125.584H228.935V111.01H288.521V125.584H288.506Z" fill="#005DEE"/>
<path d="M379.452 129.826L360.291 189.412H343.076L331.139 152.904L319.779 189.412H302.565L282.248 129.826H300.725L312.541 169.258L324.478 129.826H338.484L350.878 169.036L362.131 129.826H379.467H379.452Z" fill="#005DEE"/>
<path d="M388.825 120.582C386.768 118.867 385.74 116.68 385.74 114.005C385.74 111.33 386.768 109.024 388.825 107.31C390.882 105.595 393.502 104.738 396.652 104.738C399.802 104.738 402.437 105.595 404.543 107.31C406.648 109.024 407.692 111.256 407.692 114.005C407.692 116.754 406.648 118.882 404.543 120.582C402.437 122.296 399.818 123.154 396.652 123.154C393.486 123.154 390.898 122.296 388.825 120.582ZM405.619 130.071V189.412H387.797V130.071H405.619Z" fill="#005DEE"/>
<path d="M474.161 135.805C477.925 139.782 479.823 145.311 479.823 152.392V189.412H462.853V156.441C462.853 148.344 459.272 144.28 452.111 144.28C448.102 144.28 444.628 145.499 441.66 147.952C438.691 150.404 437.207 153.336 437.207 156.775V189.412H420.237V131.147H435.937L436.855 140.348C439.165 137.286 442.134 134.76 445.745 132.787C449.356 130.813 453.564 129.826 458.339 129.826C465.117 129.826 470.381 131.815 474.161 135.791V135.805Z" fill="#005DEE"/>
<path d="M420.237 23.8166C431.38 12.2146 446.933 5 464.158 5C481.382 5 496.92 12.1951 508.047 23.7971" stroke="#005DEE" stroke-width="10" stroke-miterlimit="10" stroke-linecap="round"/>
<path d="M244.615 16.7769V80.4652C244.615 92.3702 250.248 98.3153 261.529 98.3153C265.572 98.3153 269.342 97.5216 272.84 95.9493L271.129 82.382C269.07 83.0558 267.359 83.4003 265.981 83.4003C262.937 83.4003 261.408 81.4386 261.408 77.5301V16.7769H244.615Z" fill="#005DEE"/>
<path d="M188.883 91.46C193.2 95.0875 198.967 96.8939 206.182 96.8939C212.052 96.8939 217.168 95.5575 221.53 92.8993C225.877 90.241 229.248 86.5401 231.629 81.8111C234.01 77.0821 235.207 71.6922 235.207 65.6268C235.207 59.5613 234.113 54.5974 231.91 50.0593C229.722 45.5212 226.617 41.9671 222.595 39.4117C218.573 36.8563 213.93 35.5933 208.652 35.5933C200.165 35.5933 193.407 38.5452 188.336 44.4638L187.774 36.8122H172.485V117.132H188.883V91.46ZM188.883 62.3077C188.883 60.0166 189.548 57.8871 190.894 55.9338C192.239 53.9805 194.058 52.4238 196.365 51.2782C198.671 50.1327 201.2 49.5599 203.95 49.5599C208.489 49.5599 212.023 51.0433 214.551 53.9952C217.08 56.9472 218.351 60.8684 218.351 65.7443C218.351 71.0607 216.991 75.2757 214.285 78.3745C211.565 81.4733 207.824 83.0301 203.077 83.0301C197.947 83.0301 193.215 81.6202 188.913 78.8151V62.293L188.883 62.3077Z" fill="#005DEE"/>
</svg>
