<svg width="255" height="286" viewBox="0 0 255 286" fill="none" xmlns="http://www.w3.org/2000/svg">
<g opacity="0.5">
<path d="M3.44678 45.0586C6.81798 35.5206 14.6276 27.5527 23.2045 20.456C23.8801 19.6445 24.5603 18.8399 25.2749 18.0606C26.2391 17.0084 27.0063 15.8417 27.8033 14.6497C28.7606 13.2148 29.853 11.8738 30.6798 10.3541C32.4501 7.09908 34.4747 3.87389 33.1372 0C34.2731 0.543261 35.2465 2.11116 35.9221 3.12891C37.4955 5.50138 37.8596 8.46067 38.4711 11.1861C39.0758 13.8772 39.5017 16.8365 40.6491 19.3649C41.2698 20.731 42.2385 22.2187 43.3997 23.1791C43.6264 23.3671 43.9287 23.5344 44.2265 23.7155C43.2211 20.3505 44.5837 16.7013 46.3724 13.1345C47.9206 10.0469 51.6216 3.02576 55.8379 1.51059C54.8622 7.68589 56.1402 12.6394 60.6199 17.1345C64.4193 20.9488 69.325 25.288 76.1636 25.343C80.8998 25.382 84.6947 22.8559 89.3118 21.8794C95.3488 20.605 100.724 20.0434 106.449 21.0061C112.422 22.0101 114.756 21.7007 121.056 24.637C121.368 24.598 121.691 24.5866 122.064 24.6393C123.704 24.8685 127.469 24.841 129.084 24.527C131.553 24.0456 133.895 23.1081 135.764 21.4095C138.966 18.4984 141.591 14.9546 145.028 12.3002C149.872 8.56153 155.685 6.88131 161.669 6.08132C165.416 5.58161 169.316 5.79708 172.884 7.07844C170.589 6.7667 168.102 7.36038 165.984 8.42398C165.049 8.89389 164.207 9.35922 163.412 9.85893C164.791 9.17813 166.334 8.99704 167.864 8.88243C172.628 8.53172 177.114 9.23087 181.674 10.5856C187.656 12.3621 193.595 14.2509 199.801 15.1403C202.547 15.5322 205.108 15.8348 207.808 15.0348C209.397 14.5649 210.897 13.8337 212.434 13.2125C212.478 15.0715 210.409 17.3477 209.186 18.5213C207.723 19.9265 206.012 21.2353 204.15 22.111C209.503 26.3952 214.644 31.0897 221.913 32.0707C231.649 33.3842 236.992 26.5235 235.467 18.7987C240.846 23.4107 241.488 31.4014 240.024 37.6615C239.074 41.7234 236.261 44.1852 233.797 47.6282C230.318 52.4877 229.123 59.5226 233.504 64.3203C235.716 66.7455 238.559 68.687 240.173 71.6188C240.979 73.0789 241.181 74.7202 241.371 76.3545C241.437 71.3758 245.138 66.4223 249.515 63.8687C246.256 68.1116 248.636 75.7058 250.923 79.8983C256.83 90.7292 256.507 101.737 248.713 112.719C243.741 119.724 236.452 126.16 228.193 129.64C222.252 132.145 214.2 132.377 208.834 136.336C207.354 137.427 206.211 138.841 205.181 140.363C204.384 141.878 203.614 143.419 202.71 144.893C201.249 147.27 199.792 149.672 197.987 151.84C200.848 151.989 204.143 152.173 206.642 153.475C204.853 154.121 203.028 154.337 201.265 155.198C198.931 156.34 196.471 157.8 194.472 159.455C191.774 161.688 189.541 164.482 186.394 166.128C183.305 167.742 180.11 168.814 176.601 168.668C172.836 168.509 169.114 168.225 165.432 167.375C162.583 166.717 159.601 166.162 156.669 166.153C156.14 166.153 155.595 166.158 155.048 166.171C150.429 166.667 145.855 168.819 141.65 171.196C135.077 174.914 128.649 180.521 115.07 177.873C110.199 180.172 111.71 186.176 106.47 186.322C105.275 187.028 103.289 187.109 102.288 187.427C97.6459 188.899 93.3654 188.356 88.9453 187.803C83.293 187.095 78.4424 185.174 74.2398 181.931C71.4274 179.76 68.954 177.353 65.7064 175.76C61.7008 173.795 57.3494 172.404 52.9156 171.24C45.296 169.238 38.1459 166.676 31.9623 162.499C25.1718 157.912 19.4875 151.474 16.2148 143.98C12.8413 137.592 10.9106 130.412 10.7045 122.788C10.4709 114.218 11.5289 106.154 14.2245 97.6265C15.8414 92.5125 17.3713 87.692 16.0247 83.1006C14.3093 77.2439 9.33495 73.9454 5.34308 69.7529C-0.487823 63.628 0.529037 53.3221 3.44907 45.0563" fill="#000B70"/>
<path d="M208.973 80.1254C200.22 85.8903 191.698 89.8078 182.022 93.0352C178.797 93.9567 174.881 96.0335 173.5 99.4902C176.033 84.2743 189.626 75.7426 199.528 64.9072C207.821 56.3777 204.597 44.1578 198.147 35.3969C190.546 24.5614 176.264 17.6435 163.826 22.7162C167.051 17.4142 173.731 15.8005 179.489 16.0297C173.96 15.1082 168.203 15.3375 162.903 17.1827C153.69 20.181 145.628 26.1729 135.723 27.3259C128.942 28.0411 122.437 26.1247 116.638 22.8675C117.916 23.2778 119.336 23.8348 121.049 24.6325C121.361 24.5935 121.684 24.5821 122.057 24.6348C123.697 24.864 127.462 24.8365 129.077 24.5225C131.546 24.0411 133.888 23.1036 135.757 21.405C138.959 18.4939 141.584 14.9501 145.021 12.2957C149.865 8.55701 155.675 6.8768 161.662 6.0768C165.409 5.5771 169.309 5.79257 172.875 7.07394C170.58 6.76219 168.093 7.35588 165.974 8.41948C165.04 8.88939 164.197 9.35472 163.402 9.85443C164.781 9.17363 166.325 8.99254 167.855 8.87793C172.618 8.52722 177.107 9.22635 181.667 10.5811C187.649 12.3575 193.588 14.2486 199.794 15.1357C202.54 15.5277 205.101 15.8303 207.803 15.0303C209.392 14.5581 210.893 13.8315 212.427 13.208C212.47 15.067 210.402 17.3432 209.179 18.5168C207.716 19.9219 206.005 21.2308 204.143 22.1087C209.495 26.3929 214.635 31.0874 221.906 32.0685C231.642 33.382 236.985 26.5213 235.46 18.7964C240.839 23.4084 241.481 31.3992 240.017 37.6593C239.067 41.7212 236.254 44.183 233.79 47.626C230.879 51.6947 229.569 57.2855 231.788 61.8149C225.268 68.6985 217.282 74.53 208.973 80.1208" fill="#000B49"/>
<path d="M111.307 163.815C116.836 161.048 123.285 161.97 129.045 158.742C133.653 155.744 136.417 151.595 141.023 148.828C149.084 144.216 158.529 145.83 166.822 140.299C175.807 134.305 181.564 126.236 186.861 117.475C186.63 124.622 182.485 130.848 177.188 135.458C182.024 133.383 185.709 129.695 188.705 125.314C196.075 114.248 201.143 103.644 211.969 95.5726C223.255 87.0432 234.773 81.049 248.363 79.2037C249.05 79.1029 249.735 79.0181 250.42 78.9355C250.585 79.2725 250.749 79.598 250.917 79.9029C256.823 90.7337 256.5 101.741 248.707 112.723C243.734 119.728 236.445 126.165 228.186 129.645C222.245 132.148 214.193 132.381 208.827 136.34C207.347 137.431 206.205 138.846 205.174 140.368C204.377 141.883 203.608 143.423 202.701 144.897C201.239 147.274 199.783 149.676 197.978 151.845C200.839 151.994 204.134 152.177 206.633 153.479C204.844 154.126 203.019 154.341 201.255 155.203C198.924 156.345 196.464 157.805 194.463 159.46C191.765 161.692 189.532 164.487 186.385 166.132C183.296 167.746 180.101 168.819 176.592 168.672C172.827 168.514 169.105 168.23 165.423 167.379C162.576 166.721 159.592 166.167 156.663 166.158C156.134 166.158 155.588 166.162 155.041 166.176C150.422 166.671 145.848 168.823 141.643 171.203C135.07 174.921 128.642 180.528 115.063 177.88C110.276 180.14 111.646 185.969 106.729 186.311C105.6 177.882 103.195 168.26 111.3 163.815" fill="#000B49"/>
<g opacity="0.42">
<mask id="mask0_224_2206" style="mask-type:luminance" maskUnits="userSpaceOnUse" x="1" y="24" width="38" height="139">
<path d="M1.10381 24.1672H38.5649V162.584H1.10381V24.1672Z" fill="white"/>
</mask>
<g mask="url(#mask0_224_2206)">
<mask id="mask1_224_2206" style="mask-type:luminance" maskUnits="userSpaceOnUse" x="1" y="24" width="38" height="139">
<path d="M1.10381 24.1672H38.5649V162.584H1.10381V24.1672Z" fill="white"/>
</mask>
<g mask="url(#mask1_224_2206)">
<path d="M3.44725 45.0587C6.24361 37.1459 12.0951 30.315 18.9039 24.1672C16.5359 27.7156 14.5709 31.468 14.1014 35.8599C12.9494 45.7739 24.2356 49.0014 29.5351 55.6878C37.5967 65.6018 40.8214 78.9724 36.9051 90.9631C37.1364 85.6612 35.9844 80.5884 34.3721 75.7472C37.828 87.2749 28.8435 96.4966 23.0859 105.718C11.5638 124.26 20.6491 145.463 32.0865 162.584C32.0452 162.557 32.004 162.531 31.9628 162.504C25.1723 157.917 19.488 151.478 16.2152 143.985C12.8417 137.596 10.9111 130.417 10.7049 122.793C10.4713 114.222 11.5294 106.158 14.225 97.6312C15.8419 92.5173 17.3718 87.6967 16.0251 83.1053C14.3097 77.2486 9.33541 73.9501 5.34356 69.7576C-0.487347 63.6327 0.529507 53.3268 3.44954 45.061" fill="#5FAFEF"/>
</g>
</g>
</g>
<g opacity="0.42">
<mask id="mask2_224_2206" style="mask-type:luminance" maskUnits="userSpaceOnUse" x="10" y="108" width="89" height="81">
<path d="M10.6723 108.347H98.9146V188.379H10.6723V108.347Z" fill="white"/>
</mask>
<g mask="url(#mask2_224_2206)">
<mask id="mask3_224_2206" style="mask-type:luminance" maskUnits="userSpaceOnUse" x="10" y="108" width="89" height="81">
<path d="M10.6723 108.347H98.9146V188.379H10.6723V108.347Z" fill="white"/>
</mask>
<g mask="url(#mask3_224_2206)">
<path d="M11.6457 108.347C12.7564 118.582 16.4025 128.737 21.9333 137.761C29.3033 149.518 41.2834 154.362 53.03 159.664C57.8669 161.97 62.2435 165.426 65.4682 169.807C63.8559 166.119 61.0916 163.12 60.8602 158.972C61.8198 160.154 62.8275 161.291 63.8742 162.387C72.8862 173.963 85.006 183.324 98.9146 188.182C95.5273 188.635 92.2752 188.223 88.9429 187.808C83.2907 187.102 78.44 185.179 74.2374 181.935C71.425 179.764 68.9516 177.358 65.7041 175.764C61.6985 173.8 57.347 172.409 52.9132 171.244C45.2936 169.241 38.1435 166.68 31.9599 162.504C25.1694 157.917 19.4851 151.478 16.2124 143.985C12.8412 137.596 10.9082 130.417 10.7021 122.793C10.5693 117.874 10.8624 113.12 11.6457 108.35" fill="#5FAFEF"/>
</g>
</g>
</g>
<g style="mix-blend-mode:screen">
<mask id="mask4_224_2206" style="mask-type:luminance" maskUnits="userSpaceOnUse" x="55" y="6" width="61" height="23">
<path d="M55.46 6.51929H115.567V28.0068H55.46V6.51929Z" fill="white"/>
</mask>
<g mask="url(#mask4_224_2206)">
<mask id="mask5_224_2206" style="mask-type:luminance" maskUnits="userSpaceOnUse" x="55" y="6" width="61" height="23">
<path d="M55.46 6.51929H115.567V28.0068H55.46V6.51929Z" fill="white"/>
</mask>
<g mask="url(#mask5_224_2206)">
<path d="M83.1146 26.5396C77.8677 28.5087 71.9086 28.5935 67.4106 26.2027C59.4933 22.1454 54.6563 14.5993 55.5724 6.52148C55.8518 10.4825 57.416 13.9254 60.6155 17.1346C64.415 20.9488 69.4878 24.6783 76.3195 24.7356C81.0534 24.7746 84.8437 22.2531 89.4562 21.2789C95.4887 20.0067 100.717 20.0434 106.443 21.0062C109.115 21.4554 113.073 21.3133 115.569 22.4892C106.793 19.4543 93.171 22.9523 83.1146 26.5419" fill="#5B62C4"/>
</g>
</g>
</g>
<path d="M60.6128 17.1322C61.8678 18.7551 63.3313 20.2198 64.9711 21.4806C66.6131 22.7344 68.4362 23.7797 70.3943 24.5224C72.3501 25.2674 74.448 25.6524 76.5527 25.6433C77.6131 25.6364 78.6712 25.5012 79.6949 25.2674C80.7186 25.029 81.7103 24.7035 82.6768 24.3482C84.6097 23.6353 86.4648 22.833 88.384 22.3104C88.8649 22.1797 89.3436 22.0697 89.8429 21.9688C90.3376 21.8611 90.8322 21.7671 91.3292 21.6731C92.3232 21.492 93.3194 21.327 94.3202 21.2055C94.8195 21.1344 95.3211 21.084 95.8226 21.0267C96.3242 20.9832 96.828 20.9304 97.3319 20.9006C98.3373 20.8135 99.3473 20.7883 100.357 20.7631C102.38 20.731 104.406 20.8342 106.442 21.0084C102.473 20.0227 98.2961 19.8531 94.2149 20.2955C93.1912 20.4032 92.1766 20.5522 91.162 20.7196C90.6559 20.8067 90.1497 20.8938 89.6482 20.9946C89.1489 21.0886 88.6313 21.1963 88.1275 21.3247C86.1006 21.8336 84.2043 22.6588 82.3126 23.3396C80.4232 24.0227 78.5017 24.5545 76.5436 24.5774C75.561 24.5911 74.5717 24.5132 73.5983 24.3459C72.625 24.1808 71.6631 23.9356 70.7287 23.6055C69.792 23.28 68.8851 22.8674 68.0033 22.3998C67.1262 21.9253 66.2788 21.3912 65.452 20.8227C63.7962 19.6858 62.232 18.3998 60.6128 17.1368" fill="white"/>
<g style="mix-blend-mode:screen">
<mask id="mask6_224_2206" style="mask-type:luminance" maskUnits="userSpaceOnUse" x="57" y="173" width="1" height="1">
<path d="M57.6882 173.72H57.9355V173.873H57.6882V173.72Z" fill="white"/>
</mask>
<g mask="url(#mask6_224_2206)">
<mask id="mask7_224_2206" style="mask-type:luminance" maskUnits="userSpaceOnUse" x="57" y="173" width="1" height="1">
<path d="M57.6882 173.72H57.9355V173.873H57.6882V173.72Z" fill="white"/>
</mask>
<g mask="url(#mask7_224_2206)">
<path d="M57.9355 173.873C57.8531 173.841 57.7706 173.809 57.6882 173.779C57.6882 173.761 57.6882 173.74 57.6882 173.72C57.7706 173.77 57.8531 173.823 57.9355 173.873Z" fill="#AE98D8"/>
</g>
</g>
</g>
<g style="mix-blend-mode:screen">
<mask id="mask8_224_2206" style="mask-type:luminance" maskUnits="userSpaceOnUse" x="1" y="17" width="61" height="157">
<path d="M1.10386 17.5356H61.0664V173.777H1.10386V17.5356Z" fill="white"/>
</mask>
<g mask="url(#mask8_224_2206)">
<mask id="mask9_224_2206" style="mask-type:luminance" maskUnits="userSpaceOnUse" x="1" y="17" width="61" height="157">
<path d="M1.10386 17.5356H61.0664V173.777H1.10386V17.5356Z" fill="white"/>
</mask>
<g mask="url(#mask9_224_2206)">
<path d="M26.8253 17.5381C20.2593 24.33 11.4373 31.3878 7.81648 39.6307C3.54522 49.5057 -0.0229301 57.313 7.71801 66.4408C12.2549 71.7931 18.5576 75.2154 19.5127 84.852C20.7448 94.0049 9.49292 112.98 15.8277 132.838C21.512 150.759 26.4886 157.897 45.2318 166.719C47.4556 167.767 55.973 170.58 61.0664 173.72C61.0664 173.738 61.0664 173.759 61.0664 173.777C58.4235 172.787 55.6844 171.971 52.9132 171.242C45.2937 169.241 38.1436 166.678 31.96 162.502C25.1695 157.915 19.4852 151.478 16.2124 143.985C12.8412 137.596 10.9083 130.417 10.7022 122.793C10.4685 114.223 11.5266 106.158 14.2222 97.6313C15.8414 92.515 17.369 87.6944 16.0246 83.1053C14.3092 77.2487 9.33491 73.9501 5.34076 69.7576C-0.490139 63.6327 0.526714 53.3268 3.44675 45.061C7.28974 34.1866 16.8972 25.3592 26.8253 17.5381Z" fill="#5B62C4"/>
</g>
</g>
</g>
<path d="M52.9132 171.244C51.0169 170.687 49.1275 170.112 47.2587 169.472C45.3875 168.844 43.537 168.154 41.7232 167.387C38.0817 165.883 34.5869 164.028 31.3783 161.759C28.1697 159.49 25.2473 156.817 22.7212 153.807C20.1974 150.8 18.0744 147.451 16.5101 143.854L16.5056 143.845L16.4987 143.834C15.4864 141.892 14.6047 139.884 13.8604 137.826C13.1183 135.767 12.532 133.654 12.0809 131.513C11.6274 129.372 11.332 127.199 11.1808 125.014C11.0297 122.835 11.0228 120.634 11.0777 118.44C11.1419 116.247 11.2907 114.058 11.5381 111.878C11.7831 109.698 12.1358 107.532 12.5801 105.384C13.0244 103.236 13.5672 101.109 14.1947 99.0044C14.8222 96.907 15.5391 94.805 16.0773 92.6481C16.6201 90.4979 17.0071 88.2607 16.8766 85.9983C16.8125 84.8705 16.6132 83.7427 16.2628 82.6676C15.9376 81.5834 15.4406 80.5611 14.8841 79.5846C14.3276 78.6058 13.6497 77.7026 12.9374 76.8453C12.2251 75.9835 11.451 75.1812 10.6609 74.4041C9.08525 72.8431 7.42484 71.3944 5.90413 69.8265C4.36739 68.3022 3.22686 66.434 2.51689 64.3916C1.79317 62.3538 1.48631 60.1785 1.4176 58.0031C1.36034 55.8232 1.5527 53.6341 1.91227 51.4702C2.09548 50.3883 2.31535 49.3132 2.57185 48.2428C2.83064 47.1746 3.13068 46.1133 3.45361 45.0588C3.04137 46.0812 2.6818 47.1264 2.35888 48.1832C2.03366 49.2399 1.75196 50.3127 1.52523 51.3969C1.06719 53.5631 0.799236 55.7819 0.815269 58.0146C0.826717 60.2426 1.13589 62.489 1.86647 64.6208C2.23749 65.6821 2.71616 66.7113 3.30932 67.6718C3.89791 68.6322 4.6193 69.5239 5.40485 70.317C6.94846 71.9147 8.61346 73.3703 10.1662 74.913C10.9449 75.6832 11.703 76.4694 12.3923 77.3084C13.084 78.145 13.7344 79.0138 14.2657 79.9513C15.3513 81.8126 16.0475 83.8986 16.1529 86.0441C16.2765 88.1942 15.9032 90.3581 15.3673 92.4715C15.0994 93.5306 14.7902 94.5827 14.4673 95.6325L13.4848 98.7935C12.8504 100.914 12.3007 103.062 11.8472 105.232C10.9403 109.569 10.4273 113.991 10.3311 118.422C10.2853 120.636 10.3014 122.851 10.464 125.067C10.6266 127.281 10.9357 129.487 11.403 131.657C11.8702 133.828 12.4725 135.969 13.2351 138.055C13.9978 140.141 14.9001 142.172 15.9353 144.136L15.9261 144.116C17.5339 147.767 19.7027 151.157 22.2723 154.197C24.8443 157.237 27.8147 159.928 31.0714 162.211C34.3235 164.507 37.8962 166.305 41.5743 167.781C43.4202 168.503 45.2959 169.142 47.1899 169.72C49.0863 170.289 50.9986 170.797 52.9224 171.244" fill="white"/>
<path d="M121.824 134.633C120.745 138.399 120.227 142.238 119.483 146.094C118.265 152.409 114.479 184.823 114.479 184.823L90.221 187.852L98.1932 151.852L121.821 134.633H121.824Z" fill="#478AF6"/>
<path d="M108.735 165.14C104.182 162.839 101.647 163.891 97.7168 163.125C97.4832 163.059 96.0816 162.79 95.887 162.651L99.4231 152.237L123.051 135.02C121.973 138.786 121.455 142.626 120.711 146.481C120.035 149.981 118.54 161.919 117.372 171.483C114.009 170.155 113.288 167.444 108.733 165.142" fill="#5FAFEF"/>
<path d="M113.063 175.418C115.883 176.706 119.446 179.058 122.414 180.257C127.345 182.251 132.294 184.406 137.193 186.593C142.106 188.784 147.064 190.9 151.912 193.383C154.855 194.889 157.892 197.57 159.33 201.651C163.343 213.032 162.757 227.365 162.381 241.148C162.005 254.954 160.764 269.029 159.328 283.614L16.8283 285.113C17.5337 283.887 17.891 282.532 18.246 281.157C19.54 276.162 20.5064 271.023 21.3721 266.129C23.3028 255.218 25.0319 244.791 27.3748 234.29C30.2055 221.609 35.7227 205.898 44.4622 197.988C49.0907 193.797 55.1254 191.656 59.9784 189.896C65.5803 187.865 71.1753 185.461 76.6993 183.244C83.9249 180.347 90.9971 176.505 98.1083 174.339" fill="#FF9FD1"/>
<mask id="mask10_224_2206" style="mask-type:luminance" maskUnits="userSpaceOnUse" x="27" y="174" width="136" height="59">
<path d="M113.064 175.418C115.883 176.706 119.447 179.058 122.415 180.257C127.345 182.251 132.295 184.406 137.193 186.593C142.106 188.784 147.064 190.9 151.913 193.382C154.856 194.888 157.892 197.57 159.331 201.651C162.528 210.721 162.805 221.662 162.597 232.71H27.7415C30.6684 220.33 36.0871 205.573 44.4647 197.988C49.0932 193.797 55.1279 191.656 59.9809 189.896C65.5828 187.865 71.1778 185.46 76.7018 183.244C83.9275 180.346 90.9997 176.505 98.1108 174.339L113.064 175.416V175.418Z" fill="white"/>
</mask>
<g mask="url(#mask10_224_2206)">
<path d="M91.7096 273.776C44.9158 273.664 18.2164 223.381 31.3737 167.854C34.5205 154.577 39.6643 142.364 46.1662 131.655C58.9136 126.566 71.4526 121.908 83.8678 118.52L145.241 123.169C156.154 127.976 166.252 136.725 177.838 141.278C178.564 141.562 179.292 141.855 180.018 142.142C181.841 151.157 182.494 160.988 181.731 171.411C177.783 225.371 137.628 273.886 91.7096 273.776Z" fill="#FF7EBC"/>
<g opacity="0.37">
<mask id="mask11_224_2206" style="mask-type:luminance" maskUnits="userSpaceOnUse" x="54" y="145" width="101" height="101">
<path d="M54.4704 145.342H154.484V245.432H54.4704V145.342Z" fill="white"/>
</mask>
<g mask="url(#mask11_224_2206)">
<mask id="mask12_224_2206" style="mask-type:luminance" maskUnits="userSpaceOnUse" x="54" y="145" width="101" height="101">
<path d="M54.4704 145.342H154.484V245.432H54.4704V145.342Z" fill="white"/>
</mask>
<g mask="url(#mask12_224_2206)">
<path d="M95.4446 245.432C66.2626 245.194 48.7722 214.063 56.1651 178.453C57.9789 169.713 61.1302 161.587 65.2206 154.387C73.5135 150.907 81.7193 147.7 89.8954 145.344L130.629 148.262C137.846 151.498 144.444 157.403 152.077 160.445C152.556 160.635 153.035 160.83 153.513 161.023C154.551 167.086 154.789 173.655 154.083 180.573C150.513 215.534 124.285 245.671 95.4469 245.434" fill="#F43D4F"/>
</g>
</g>
</g>
<path d="M98.4108 226.196C80.002 225.973 68.6219 206.453 72.9253 183.627C73.9994 177.928 75.9529 172.596 78.5386 167.84C83.9092 165.516 89.2477 163.365 94.5839 161.775L121.334 163.622C126.063 165.765 130.35 169.683 135.341 171.689C135.652 171.815 135.966 171.943 136.277 172.069C136.884 176.078 136.96 180.406 136.415 184.938C133.696 207.493 116.685 226.416 98.4108 226.193" fill="#F43D4F"/>
</g>
<path d="M100.547 212.349C89.8567 212.188 83.1005 200.904 85.4388 187.492C86.0297 184.101 87.1474 180.913 88.6497 178.054C91.8286 176.647 94.9982 175.34 98.1793 174.369L112.372 175.111C115.198 176.402 119.554 179.095 122.529 180.299C122.714 180.374 122.9 180.452 123.088 180.528C123.418 182.939 123.427 185.534 123.063 188.241C121.274 201.559 111.192 212.507 100.545 212.349" fill="#478AF6"/>
<path d="M100.547 212.349C89.8567 212.188 83.1005 200.904 85.4388 187.492C86.0297 184.101 87.1473 180.913 88.6497 178.054C91.8286 176.647 94.9982 175.34 98.1793 174.369L112.372 175.111C115.198 176.402 119.554 179.095 122.529 180.299C122.714 180.374 122.9 180.452 123.088 180.528C123.418 182.939 123.427 185.534 123.063 188.241C121.274 201.559 111.192 212.507 100.545 212.349H100.547Z" stroke="#5FAFEF" stroke-width="1.64" stroke-miterlimit="10"/>
<g style="mix-blend-mode:screen">
<mask id="mask13_224_2206" style="mask-type:luminance" maskUnits="userSpaceOnUse" x="16" y="175" width="80" height="111">
<path d="M16.8353 175.178H95.4976V285.489H16.8353V175.178Z" fill="white"/>
</mask>
<g mask="url(#mask13_224_2206)">
<mask id="mask14_224_2206" style="mask-type:luminance" maskUnits="userSpaceOnUse" x="16" y="175" width="80" height="111">
<path d="M16.833 175.178H95.4976V285.489H16.833V175.178Z" fill="white"/>
</mask>
<g mask="url(#mask14_224_2206)">
<path d="M18.2553 281.517C19.5516 276.501 20.5203 271.342 21.3883 266.427C23.3235 255.47 25.0549 245.001 27.4024 234.459C30.2377 221.728 35.7663 205.955 44.5195 198.011C49.1549 193.802 55.2011 191.65 60.0655 189.882C65.6766 187.842 71.2831 185.424 76.8162 183.198C83.1189 180.663 89.3025 177.41 95.4976 175.178C84.6305 180.782 80.8882 183.673 73.3763 187.675C64.6093 192.133 55.1095 194.907 47.1464 202.987C31.7722 218.613 31.6141 244.222 26.7955 266.267C25.4786 272.293 24.2808 278.897 22.5746 285.425L16.833 285.487C17.5407 284.254 17.898 282.895 18.253 281.515" fill="#FF7EBC"/>
</g>
</g>
</g>
<path d="M122.414 180.26C127.345 182.254 132.294 184.409 137.193 186.595C142.106 188.787 147.064 190.902 151.912 193.385C154.855 194.891 157.892 197.573 159.33 201.653C163.343 213.034 162.757 227.367 162.381 241.151C162.005 254.957 160.764 269.031 159.328 283.617L16.8283 285.116C17.5337 283.889 17.891 282.535 18.246 281.159C19.5377 276.165 20.5064 271.025 21.3721 266.131C23.3028 255.22 25.0319 244.793 27.3748 234.292C30.2055 221.612 35.725 205.901 44.4622 197.99C49.0907 193.8 55.1254 191.659 59.9784 189.898C65.5803 187.868 71.1753 185.461 76.6993 183.246C83.9249 180.349 90.9971 176.507 98.1083 174.341" stroke="white" stroke-width="1.64" stroke-miterlimit="10"/>
<path d="M112.374 175.111C115.186 176.317 119.442 179.015 122.414 180.257C127.345 182.252 132.294 184.406 137.193 186.593C142.106 188.784 147.064 190.9 151.912 193.383C154.855 194.889 157.892 197.571 159.33 201.651C163.343 213.032 162.757 227.365 162.381 241.148C162.005 254.955 160.764 269.029 159.328 283.614" stroke="#5FAFEF" stroke-width="1.64" stroke-miterlimit="10"/>
<path d="M97.2538 165.582C101.184 166.348 105.961 163.73 108.464 167.196C113.379 167.888 114.009 170.153 117.371 171.48C116.421 179.258 115.708 185.208 115.708 185.208L90.2526 188.085L95.8842 162.651C97.2744 162.942 97.0202 165.516 97.2538 165.585" fill="#478AF6"/>
<path d="M92.1377 118.456C91.4483 117.356 90.5529 115.884 88.8902 115.779C87.4015 115.685 85.7938 116.052 84.5113 117.058C81.6141 119.327 80.8057 123.048 81.266 125.988C81.5294 127.671 82.2691 128.794 82.828 130.316C83.3295 131.682 83.1211 133.14 83.3501 134.58C83.6181 136.26 85.3724 136.654 87.0763 136.508C87.9122 136.437 88.8077 136.212 89.4971 135.579C90.0742 135.05 91.2789 133.5 90.6445 132.945" fill="#5FAFEF"/>
<path d="M96.1732 144.008C99.2902 146.568 107.308 146.591 111.371 144.537" stroke="#040B8F" stroke-width="1.62" stroke-linecap="round" stroke-linejoin="round"/>
<path d="M115.761 88.9596C96.448 88.3247 88.6727 97.6747 87.9467 106.443C87.9467 106.443 85.6405 126.5 84.7496 133.099C83.845 139.797 83.6915 149.397 86.7764 153.401C89.8843 157.436 93.6952 161.296 100.367 161.433C107.024 161.571 108.71 161.789 116.955 154.396C121.407 150.403 125.731 140.932 127.49 134.305C129.221 127.776 133.632 107.804 133.632 107.804C136.38 99.167 132.496 89.5098 113.293 88.8794" fill="#478AF6"/>
<path d="M115.761 88.9596C115.342 88.9459 114.932 88.939 114.525 88.9344C114.121 88.9115 113.711 88.8931 113.292 88.8794L115.761 88.9596Z" fill="#478AF6"/>
<path d="M131.143 115.359C131.342 115.302 131.55 115.265 131.763 115.235C131.706 115.458 131.651 115.685 131.591 115.914C131.449 115.724 131.296 115.54 131.143 115.362" fill="#5FAFEF"/>
<path d="M126.784 116.003C126.784 116.003 125.415 112.091 120.367 110.867C117.394 110.145 115.127 110.149 113.707 110.832" stroke="#040B8F" stroke-width="9.25" stroke-linecap="round" stroke-linejoin="round"/>
<path d="M100.946 109.635C99.6908 108.68 97.0135 107.412 93.7064 108.125C90.7245 108.767 89.568 109.716 88.4045 110.768" stroke="#040B8F" stroke-width="9.25" stroke-linecap="round" stroke-linejoin="round"/>
<path d="M110.23 145.851C110.159 145.885 110.088 145.917 110.015 145.949C109.788 145.89 109.564 145.887 109.337 145.828C108.95 145.727 108.508 145.514 108.158 145.289C107.446 144.831 106.786 144.276 106.074 143.824C105.384 143.384 104.674 143.187 103.932 143.171C103.401 143.16 102.819 143.286 102.366 143.494C102.125 143.604 101.585 144.054 101.585 144.054C101.585 144.054 101.081 143.611 100.802 143.421C100.504 143.219 100.222 143.015 99.8924 142.896C99.2168 142.651 98.4816 142.791 97.8976 143.011C97.1533 143.29 96.5075 143.481 95.6899 143.597C94.7715 143.73 93.9035 143.792 92.9622 143.46C93.292 143.554 93.0607 143.866 93.0607 143.866C93.3447 144.755 93.2806 149.945 100.275 151.082C104.583 151.6 109.289 149.472 110.23 145.853" fill="#F43D4F"/>
<path d="M110.23 145.851C110.159 145.885 110.088 145.917 110.015 145.949C109.788 145.89 109.564 145.887 109.337 145.828C108.95 145.727 108.508 145.514 108.158 145.289C107.446 144.831 106.786 144.276 106.074 143.824C105.384 143.384 104.674 143.187 103.932 143.171C103.401 143.16 102.819 143.286 102.366 143.494C102.125 143.604 101.585 144.054 101.585 144.054C101.585 144.054 101.081 143.611 100.802 143.421C100.504 143.219 100.222 143.015 99.8924 142.896C99.2168 142.651 98.4816 142.791 97.8976 143.011C97.1533 143.29 96.5075 143.481 95.6899 143.597C94.7715 143.73 93.9035 143.792 92.9622 143.46C93.292 143.554 93.0607 143.866 93.0607 143.866C93.3447 144.755 93.2806 149.945 100.275 151.082C104.583 151.6 109.289 149.472 110.23 145.853V145.851Z" stroke="#5FAFEF" stroke-width="2.01" stroke-linecap="round" stroke-linejoin="round"/>
<path d="M91.8122 142.229C93.3261 144.443 95.5842 145.679 97.9775 146.538C100.197 147.336 102.535 147.501 104.704 147.354C106.564 147.228 108.325 146.777 109.93 146.046C110.445 145.812 111.559 145.333 111.831 144.881" stroke="#040B8F" stroke-width="1.61" stroke-linecap="round" stroke-linejoin="round"/>
<path d="M90.871 143.375C90.9168 142.749 91.2489 142.234 91.6703 141.787C91.8925 141.55 92.362 141.005 92.7376 141.11C92.8383 141.138 92.8727 141.248 92.8292 141.337C92.7673 141.463 92.6459 141.532 92.5383 141.612C92.3574 141.75 92.1879 141.901 92.0276 142.064C91.6291 142.467 91.2718 142.928 90.9603 143.398C90.9374 143.435 90.8687 143.423 90.871 143.373" fill="#5FAFEF"/>
<path d="M112.713 146.254C112.342 145.692 111.939 145.133 111.506 144.617C111.254 144.319 110.801 144.012 110.645 143.652C110.604 143.554 110.65 143.414 110.778 143.421C111.215 143.446 111.625 144.053 111.87 144.356C112.317 144.906 112.688 145.504 112.798 146.22C112.807 146.272 112.743 146.304 112.711 146.256" fill="#5FAFEF"/>
<path d="M91.6499 182.105C93.0721 174.985 94.7096 168.484 96.2944 161.548L91.6499 182.105Z" fill="#FFA6D5"/>
<path d="M91.5971 182.091C91.9109 180.326 92.1582 178.554 92.4926 176.794C92.8178 175.077 93.1751 173.364 93.5438 171.657C94.2789 168.244 95.0393 164.824 95.8913 161.438C96.0241 160.908 96.8119 161.135 96.7043 161.663C95.9989 165.08 95.1263 168.477 94.2835 171.863C93.8621 173.557 93.4407 175.249 93.017 176.94C92.5842 178.669 92.0941 180.386 91.7047 182.123C91.6887 182.192 91.5879 182.162 91.5994 182.096" fill="#AECFFF"/>
<g style="mix-blend-mode:screen">
<mask id="mask15_224_2206" style="mask-type:luminance" maskUnits="userSpaceOnUse" x="113" y="88" width="3" height="1">
<path d="M113.432 88.8839H115.901V88.9641H113.432V88.8839Z" fill="white"/>
</mask>
<g mask="url(#mask15_224_2206)">
<mask id="mask16_224_2206" style="mask-type:luminance" maskUnits="userSpaceOnUse" x="113" y="88" width="3" height="1">
<path d="M113.432 88.8839H115.901V88.9641H113.432V88.8839Z" fill="white"/>
</mask>
<g mask="url(#mask16_224_2206)">
<path d="M115.901 88.9641C115.482 88.9504 115.072 88.9435 114.664 88.9389C114.261 88.916 113.851 88.8977 113.432 88.8839L115.901 88.9641Z" fill="#FF7EBC"/>
</g>
</g>
</g>
<path d="M91.6223 97.246C89.4237 107.848 86.909 125.924 86.0937 141.356C86.3159 147.501 86.7716 151.29 90.2757 155.318C96.5394 161.122 104.974 162.689 114.071 156.81C114.195 156.746 114.316 156.677 114.438 156.613C108.332 161.094 106.504 161.821 100.671 161.699C94.0019 161.562 89.0825 157.463 86.5426 153.016C83.6363 147.927 83.8424 139.79 84.7471 133.099C85.638 126.504 88.0931 106.195 88.0931 106.195C88.3473 103.135 89.4626 99.999 91.6223 97.246Z" fill="#AECFFF"/>
<path d="M126.422 134.422C128.158 127.891 133.774 107.809 133.774 107.809C136.52 99.1715 132.636 89.5143 113.432 88.8839" stroke="#040B8F" stroke-width="2.16" stroke-miterlimit="10"/>
<path d="M115.908 88.7168C113.412 88.6319 110.906 88.7076 108.421 88.9987C105.939 89.299 103.47 89.817 101.102 90.6629C98.7381 91.5018 96.4708 92.6754 94.4874 94.2388C92.5064 95.7998 90.8162 97.7596 89.6551 100.011C89.0711 101.134 88.613 102.323 88.2947 103.548C88.1367 104.16 88.0107 104.783 87.9214 105.409C87.8756 105.723 87.8412 106.039 87.8137 106.346L87.7061 107.268L86.8083 114.681L84.9784 129.503L84.4998 133.202C84.3349 134.44 84.1998 135.685 84.1104 136.932C83.9295 139.426 83.8997 141.933 84.1104 144.432C84.328 146.924 84.77 149.427 85.7182 151.772C86.19 152.945 86.8244 154.055 87.5664 155.073C88.3107 156.093 89.1695 157.028 90.1223 157.855C92.0277 159.51 94.3248 160.718 96.7754 161.326C97.3869 161.479 98.0075 161.596 98.6327 161.679C99.2603 161.761 99.8855 161.796 100.508 161.835C101.759 161.906 103.021 161.892 104.274 161.743C105.526 161.596 106.763 161.284 107.938 160.828C109.115 160.37 110.228 159.772 111.282 159.093C112.337 158.417 113.331 157.656 114.298 156.867C114.783 156.478 115.255 156.07 115.722 155.655C116.19 155.242 116.65 154.823 117.101 154.394C115.141 155.928 113.18 157.463 111.071 158.752C110.013 159.387 108.925 159.971 107.778 160.402C106.635 160.844 105.439 161.142 104.221 161.282C103.002 161.424 101.768 161.436 100.536 161.365C99.9198 161.326 99.3015 161.289 98.6946 161.209C98.0877 161.129 97.483 161.014 96.8899 160.865C94.5103 160.274 92.2842 159.098 90.4383 157.489C89.5131 156.684 88.6817 155.774 87.9603 154.784C87.2389 153.791 86.6274 152.723 86.1739 151.586C85.2578 149.308 84.825 146.848 84.6143 144.388C84.4105 141.924 84.4425 139.439 84.6257 136.968C84.7174 135.733 84.8502 134.5 85.0174 133.271L85.5029 129.567L87.358 114.745L88.2672 107.332L88.3794 106.399C88.4069 106.09 88.4412 105.787 88.4871 105.484C88.5741 104.879 88.6955 104.279 88.8512 103.687C89.1604 102.505 89.6047 101.356 90.1704 100.272C91.3017 98.1012 92.9186 96.1986 94.8401 94.6766C96.7616 93.1522 98.9694 91.9992 101.287 91.1672C103.605 90.3305 106.035 89.8124 108.485 89.5076C110.938 89.2119 113.418 89.1294 115.894 89.205L115.91 88.7099L115.908 88.7168Z" fill="#040B8F"/>
<path d="M108.989 89.3033C107.879 91.5681 108.673 94.5732 109.53 96.5858C110.567 99.0178 112.736 100.719 115.159 101.961C117.782 103.304 122.893 104.936 125.051 106.871C127.052 108.664 128.967 110.791 129.043 116.324C128.736 122.394 130.117 125.154 130.886 130.234C131.672 135.437 138.403 137.097 142.747 140.005C145.106 141.585 147.882 142.034 150.905 141.915C155.792 141.725 159.562 138.937 162.709 135.205C167.571 129.44 168.867 121.995 168.622 115.341C168.23 104.748 164.582 95.1417 159.136 86.8506C153.871 78.8347 146.501 72.1321 136.57 69.425C128.736 67.2886 119.234 66.4451 110.604 67.3093C104.785 67.8915 98.0879 69.3012 92.6509 72.2055C87.4933 74.9585 82.7457 79.0066 78.4836 83.0065C75.4124 85.8879 73.7177 89.3927 71.9817 92.9365C70.1976 96.5812 69.0181 100.276 68.7525 104.081C68.4868 107.877 81.7128 114.369 86.6574 115.109C87.388 112.324 88.2125 109.001 93.338 104.907C98.4658 101.168 100.593 102.965 105.201 97.9909C107.098 95.9417 109.72 92.5125 108.987 89.301" fill="#000B70"/>
<path d="M128.506 122.47C129.608 121.429 131.646 121.2 133.307 121.186C134.793 121.175 136.208 121.619 137.065 122.672C138.993 125.044 138.332 128.719 136.742 131.568C135.833 133.198 134.676 134.261 133.543 135.721C132.524 137.035 132.157 138.47 131.374 139.866C130.46 141.498 128.596 141.8 126.993 141.578C126.205 141.468 125.417 141.207 124.991 140.553C124.634 140.006 124.061 138.428 124.897 137.915" fill="#478AF6"/>
<path d="M125.142 104.787C125.667 106.14 127.247 107.362 128.035 108.654C128.575 109.544 129.086 110.539 129.349 111.563C129.855 113.537 129.652 115.664 129.381 117.766C128.738 122.759 129.581 127.231 133.797 130.112C136.735 132.12 141.252 132.746 144.765 130.277C149.24 127.132 151.427 121.663 151.986 116.95C152.588 111.871 151.464 106.397 149.008 102.298C147.609 99.9646 145.917 97.9956 143.949 96.1297C140.807 93.1475 137.658 91.5681 133.327 90.1974" fill="#000B70"/>
<path d="M205.666 108.393C205.311 114.413 203.447 120.132 200.337 125.289C197.33 130.275 193.272 134.575 188.666 138.112C186.037 140.132 183.227 141.924 180.215 143.311C179.901 143.455 179.629 143.018 179.94 142.839C184.878 139.999 189.548 136.812 193.551 132.728C197.662 128.531 201.008 123.54 203.088 118.032C204.253 114.942 205.087 111.694 205.307 108.393C205.323 108.162 205.685 108.159 205.671 108.393" fill="#5FAFEF"/>
<path d="M203.573 123.999C201.62 128.049 199.183 131.74 196.075 134.997C192.983 138.238 189.369 141.009 185.38 143.05C183.385 144.07 181.296 144.911 179.146 145.532C176.48 146.302 173.727 146.708 170.983 147.084C166.146 147.746 161.321 148.484 156.624 149.846C151.326 151.38 146.279 153.731 141.987 157.236C141.794 157.392 141.52 157.126 141.712 156.961C148.988 150.635 158.6 148.212 167.917 146.818C173.058 146.05 178.204 145.456 183.018 143.359C187.159 141.553 190.917 138.965 194.213 135.886C197.873 132.469 201.116 128.363 203.482 123.944C203.516 123.88 203.612 123.937 203.58 124.001" fill="#5FAFEF"/>
<path d="M157.226 152.627C153.724 153.257 150.786 155.451 148.012 157.557C144.973 159.865 141.92 162.084 138.496 163.801C136.584 164.759 134.612 165.575 132.578 166.236C132.347 166.311 132.262 165.963 132.48 165.878C136.131 164.477 139.637 162.722 142.912 160.581C145.965 158.584 148.711 156.127 151.892 154.323C153.527 153.394 155.286 152.661 157.146 152.335C157.336 152.301 157.418 152.592 157.226 152.627Z" fill="#5FAFEF"/>
<path d="M62.1933 161.046C62.3788 158.999 60.8833 157.372 59.3167 156.274C57.6266 155.088 55.7417 154.194 53.834 153.422C50.0276 151.884 46.0518 150.781 42.3668 148.943C35.4527 145.495 29.5805 139.769 26.9056 132.42C25.2795 127.955 24.897 123.132 25.7307 118.463C25.7742 118.225 26.191 118.277 26.1589 118.52C25.591 122.8 25.9139 127.194 27.2811 131.3C28.5408 135.079 30.6409 138.518 33.3685 141.415C36.0664 144.281 39.3117 146.584 42.8294 148.335C46.5419 150.185 50.5635 151.272 54.3745 152.888C57.6747 154.288 62.8483 156.698 62.4292 161.044C62.4154 161.195 62.1772 161.197 62.191 161.044" fill="#3E8DFF"/>
<path d="M48.0508 134.353C43.436 132.095 39.4121 128.886 36.3844 124.712C33.2147 120.345 31.4238 115.268 30.7253 109.938C29.8962 103.625 30.4138 97.2391 30.9062 90.9217C31.41 84.4965 32.0009 77.9155 30.8489 71.5247C29.8023 65.7299 27.1136 60.3478 22.3041 56.8017C22.1003 56.6504 22.2835 56.3111 22.5079 56.4532C32.4383 62.7982 32.5803 76.178 31.8841 86.6077C31.0848 98.5663 29.0671 111.6 35.5897 122.417C38.5807 127.377 43.0444 131.471 48.163 134.167C48.2867 134.231 48.1767 134.412 48.0554 134.353" fill="#3E8DFF"/>
<path d="M16.0908 36.3159C12.7585 39.9262 11.3889 45.0241 12.6509 49.8012C14.0296 55.0252 17.9252 59.087 21.3262 63.0893C24.6425 66.9907 27.6678 71.1648 28.5885 76.3155C29.4634 81.2117 28.8244 86.2317 28.2289 91.1234C27.5327 96.8471 26.6808 102.676 27.732 108.411C27.7663 108.599 27.4869 108.684 27.4411 108.492C24.9585 98.3256 29.2229 88.0334 27.9976 77.8078C27.6884 75.2198 26.9098 72.7419 25.6616 70.452C24.3516 68.0474 22.6477 65.8881 20.8934 63.7953C17.5313 59.7907 13.7296 55.7931 12.2386 50.6447C10.7454 45.4849 12.273 40.0156 15.8961 36.1211C16.0152 35.9927 16.2076 36.1853 16.0885 36.3136" fill="#3E8DFF"/>
<path d="M23.0487 94.0964C24.3084 86.2936 22.751 78.0553 18.2736 71.5064C18.1362 71.307 18.4614 71.0502 18.6126 71.2451C22.4258 76.0817 24.1893 82.3968 23.8824 88.5194C23.7885 90.4059 23.5068 92.2718 23.1312 94.1216C23.1197 94.1744 23.0419 94.1514 23.0487 94.0987" fill="#3E8DFF"/>
<path d="M170.5 125.108C166.964 132.019 161.623 137.86 155.117 142.082C153.271 143.281 151.306 144.34 149.274 145.191C149.082 145.271 148.949 144.95 149.132 144.856C156.014 141.287 162.143 136.537 166.829 130.309C168.102 128.615 169.273 126.848 170.28 124.982C170.358 124.838 170.573 124.966 170.498 125.111" fill="#5FAFEF"/>
<path d="M167.944 134.967C164.765 138.985 160.615 142.172 155.79 143.939C155.652 143.989 155.552 143.758 155.689 143.698C160.32 141.706 164.598 138.754 167.882 134.905C167.921 134.859 167.983 134.924 167.946 134.969" fill="#5FAFEF"/>
<path d="M185.837 22.0009C191.034 25.1894 192.337 32.0684 192.12 37.7463C192 40.8431 191.302 43.9331 189.836 46.6769C188.247 49.6499 185.769 51.823 183.192 53.9204C180.497 56.1117 177.987 58.3627 176.074 61.2968C174.247 64.1002 172.953 67.2108 172.002 70.413C171.011 73.7551 170.463 77.1981 169.673 80.5883C168.876 84.006 167.745 87.3275 165.858 90.3051C162.406 95.756 157.162 99.8385 151.729 103.171C151.022 103.607 150.305 104.024 149.581 104.434C149.478 104.492 149.389 104.338 149.489 104.279C154.954 100.98 160.302 96.987 164.041 91.7331C166.002 88.9779 167.385 85.9544 168.294 82.6994C169.236 79.3275 169.758 75.8617 170.598 72.4669C172.135 66.2732 174.815 60.2653 179.59 55.8917C182.043 53.6453 184.869 51.7932 187.06 49.2717C189.135 46.8832 190.42 43.9308 190.984 40.8317C191.524 37.854 191.435 34.7297 190.892 31.759C190.356 28.8318 189.277 25.9275 187.317 23.6467C186.834 23.0851 186.35 22.5488 185.785 22.0674C185.75 22.0376 185.794 21.9803 185.833 22.0032" fill="#5FAFEF"/>
<path d="M179.084 68.6709C177.68 78.0622 174.473 87.2174 168.136 94.4448C165.219 97.7731 161.726 100.609 157.796 102.656C155.524 103.838 153.14 104.792 150.87 105.982C148.885 107.022 147.011 108.276 145.31 109.739C141.572 112.948 138.563 117.023 136.873 121.667C136.836 121.768 136.676 121.727 136.71 121.622C138.025 117.64 140.271 113.968 143.168 110.942C144.632 109.413 146.283 108.04 148.049 106.876C150.108 105.516 152.348 104.496 154.583 103.465C156.752 102.465 158.872 101.395 160.849 100.049C162.709 98.7817 164.433 97.3284 166.02 95.733C169.208 92.5239 171.798 88.7646 173.796 84.712C176.29 79.6507 177.854 74.1562 178.965 68.6388C178.981 68.5608 179.095 68.5952 179.084 68.6709Z" fill="#5FAFEF"/>
<path d="M70.1036 117.496C65.143 118.793 59.9121 118.424 55.2882 116.145C50.8932 113.979 47.6457 110.186 45.8571 105.649C43.9081 100.705 43.7363 95.254 44.4875 90.046C44.9158 87.0845 45.6372 84.171 46.5189 81.3149C47.4465 78.3121 48.6305 75.4124 49.7138 72.4668C50.2978 70.8806 50.8268 69.2623 51.1039 67.5912C51.3673 65.9981 51.3788 64.373 51.2024 62.773C50.852 59.5936 49.6794 56.5725 48.3168 53.7026C48.2412 53.5421 48.4748 53.4 48.5572 53.5605C51.0032 58.2802 52.6682 63.4767 51.4956 68.813C50.8383 71.8021 49.558 74.6261 48.5389 77.5006C47.5541 80.2788 46.6655 83.096 45.999 85.9704C44.76 91.3091 44.2699 96.9503 45.5753 102.326C46.7388 107.119 49.3909 111.545 53.5339 114.319C58.3021 117.512 64.4536 118.451 70.012 117.161C70.2296 117.111 70.3212 117.441 70.1036 117.496Z" fill="#5FAFEF"/>
<path d="M58.1257 22.3561C56.55 28.1097 61.2862 32.6139 65.2414 35.9812C67.2934 37.7279 69.3546 39.4677 71.07 41.5582C72.5907 43.4127 73.8732 45.4596 74.8626 47.6441C76.9009 52.1461 77.7277 57.1317 77.3956 62.0577C77.0062 67.825 74.8008 73.1384 73.264 78.6467C71.7479 84.0816 70.7562 90.8414 74.6061 95.5886C74.755 95.772 74.5076 96.0333 74.3427 95.8522C70.9188 92.1113 70.7997 86.6947 71.6906 81.9613C72.7991 76.0679 75.4122 70.5574 76.3077 64.6113C77.0818 59.4652 76.5826 54.1197 74.6725 49.267C73.7473 46.9152 72.4853 44.6871 70.9394 42.6906C69.2813 40.5496 67.2614 38.7709 65.2093 37.0196C62.9237 35.0689 60.5373 33.0769 58.9822 30.4638C57.5004 27.9721 56.9141 25.0701 57.7592 22.2553C57.8302 22.0192 58.1944 22.1177 58.128 22.3561" fill="#5FAFEF"/>
<path d="M76.3029 41.6866C80.7299 46.0396 82.6766 52.1644 81.6803 58.2893C81.6391 58.5392 81.204 58.4841 81.2337 58.2297C81.9322 52.3364 80.281 46.2252 76.0349 41.9571C75.8609 41.7829 76.1288 41.517 76.3029 41.6889" fill="#5FAFEF"/>
<path d="M201.549 21.4737C202.485 22.315 203.358 23.1196 204.137 24.1213C204.828 25.0107 205.449 25.9596 205.98 26.9522C207.086 29.0106 207.867 31.2478 208.305 33.5447C209.248 38.5005 208.619 43.6191 207.05 48.38C206.086 51.3095 204.76 54.1519 203.163 56.7903C203.019 57.031 202.666 56.8201 202.79 56.5725C205.142 51.8597 207.134 46.9038 207.748 41.634C208.28 37.0587 207.707 32.3435 205.712 28.1625C205.163 27.0095 204.519 25.9023 203.779 24.8617C203.026 23.8003 202.174 22.6932 201.235 21.79C201.026 21.5906 201.338 21.2835 201.549 21.4737Z" fill="#5FAFEF"/>
<path d="M211.928 34.9292C214.427 44.7171 210.075 54.56 204.34 62.333C202.685 64.5771 200.882 66.7203 198.949 68.7306C198.736 68.9529 198.425 68.6251 198.617 68.3959C204.762 61.0585 210.852 52.9508 211.942 43.1217C212.242 40.4237 212.171 37.6822 211.559 35.0324C211.504 34.7917 211.868 34.6908 211.928 34.9292Z" fill="#5FAFEF"/>
<path d="M215.139 45.8197C214.642 49.4299 214.158 53.0608 212.782 56.4625C211.362 59.9651 208.928 62.7662 206.454 65.565C203.942 68.4051 201.336 71.1787 198.326 73.5031C195.44 75.7334 192.252 77.5695 189.541 80.0222C186.394 82.8669 184.287 86.5459 182.654 90.4221C182.553 90.6605 182.162 90.5665 182.256 90.3121C183.508 86.9723 185.144 83.7562 187.548 81.0927C189.953 78.4291 193.027 76.4967 195.935 74.4429C199.082 72.2194 201.867 69.6452 204.469 66.8074C207.043 63.9971 209.832 61.1341 211.573 57.7095C213.462 53.9961 214.181 49.8104 214.802 45.7303C214.836 45.5079 215.166 45.6042 215.136 45.822" fill="#5FAFEF"/>
<path d="M163.989 116.077C162.2 121.094 159.5 125.679 155.923 129.626C152.206 133.727 147.698 137.126 142.756 139.607C140.022 140.977 137.113 142.128 134.104 142.717C133.847 142.768 133.742 142.401 133.994 142.323C136.6 141.507 139.165 140.611 141.634 139.432C144.075 138.268 146.409 136.879 148.603 135.297C152.934 132.175 156.765 128.299 159.795 123.898C161.474 121.459 162.931 118.853 163.961 116.07C163.968 116.054 163.991 116.061 163.986 116.077" fill="#5FAFEF"/>
<path d="M49.7043 87.3343C49.7158 85.3263 49.9471 83.3802 50.4509 81.4341C50.9731 79.4169 51.6693 77.4456 52.3472 75.4766C53.7214 71.4835 55.0268 67.4033 54.5252 63.1283C54.2275 60.593 53.4191 58.1633 52.6885 55.7289C52.6381 55.5639 52.8854 55.502 52.9427 55.6578C54.4405 59.7243 55.51 63.9672 54.8504 68.3202C54.2206 72.4646 52.4411 76.3384 51.2136 80.3178C50.5173 82.571 49.8349 84.9596 49.8097 87.3343C49.8097 87.4008 49.7043 87.4008 49.7066 87.3343" fill="#5FAFEF"/>
<path d="M56.7836 71.9833C58.1326 68.4441 57.686 64.843 57.3837 61.1709C57.3676 60.9829 57.6837 60.937 57.7158 61.125C58.3433 64.7697 58.5242 68.5817 57.0882 72.0659C57.0127 72.2492 56.7103 72.1736 56.7836 71.9811" fill="#5FAFEF"/>
<path d="M82.7889 46.9405C82.1476 42.2689 79.4933 38.2254 75.735 35.4472C75.5724 35.3257 75.7213 35.0529 75.8976 35.1699C79.9238 37.8403 82.521 42.1107 83.1462 46.8924C83.1714 47.0941 82.8164 47.1445 82.7889 46.9405Z" fill="#5FAFEF"/>
<path d="M122.071 124.645C122.071 124.645 123.793 119.316 117.648 118.332C112.459 117.503 111.549 123.513 111.549 123.513C111.549 123.513 116.231 123.038 122.068 124.643" fill="#FEFCEF"/>
<path d="M115.093 121.856C115.83 122.917 117.339 123.165 118.461 122.41C119.584 121.656 119.891 120.185 119.149 119.13C118.409 118.078 116.904 117.835 115.786 118.585C114.669 119.334 114.355 120.799 115.09 121.856" fill="#ED5DA8"/>
<path d="M115.81 120.613C115.851 121.315 116.476 121.828 117.202 121.761C117.93 121.695 118.484 121.072 118.441 120.37C118.397 119.671 117.772 119.158 117.046 119.226C116.32 119.293 115.768 119.914 115.81 120.613Z" fill="#040B8F"/>
<path d="M122.071 124.645C122.071 124.645 123.793 119.316 117.648 118.332C112.459 117.503 111.549 123.513 111.549 123.513" stroke="#5FAFEF" stroke-width="2.26" stroke-linecap="round" stroke-linejoin="round"/>
<path d="M98.8481 120.748C98.8481 120.748 100.378 116.013 94.9181 115.139C90.3056 114.401 89.4994 119.744 89.4994 119.744C89.4994 119.744 93.6607 119.323 98.8481 120.748Z" fill="#FEFCEF"/>
<path d="M92.6459 118.268C93.3009 119.21 94.643 119.433 95.6415 118.761C96.6401 118.089 96.9126 116.785 96.253 115.845C95.5957 114.91 94.2583 114.694 93.2666 115.362C92.2726 116.029 91.9955 117.328 92.6482 118.268" fill="#ED5DA8"/>
<path d="M93.2807 117.165C93.3174 117.789 93.8716 118.245 94.5174 118.185C95.1633 118.126 95.658 117.571 95.6167 116.95C95.5778 116.329 95.0236 115.873 94.3777 115.932C93.7342 115.992 93.2418 116.544 93.2784 117.165" fill="#040B8F"/>
<path d="M98.8481 120.748C98.8481 120.748 100.378 116.013 94.9181 115.139C90.3056 114.401 89.4994 119.744 89.4994 119.744" stroke="#5FAFEF" stroke-width="2.01" stroke-linecap="round" stroke-linejoin="round"/>
<path d="M107.876 136.65C107.789 137.186 107.404 137.571 106.967 137.796C106.316 138.128 105.76 138.502 105.169 138.951C104.631 139.359 104.246 139.998 103.696 140.363C103.241 140.663 102.398 140.755 101.88 140.647C101.285 140.523 100.637 139.792 100.261 139.299C99.8991 138.825 99.622 138.275 99.2625 137.8C98.9235 137.353 98.5342 137.042 98.154 136.654C97.9731 136.471 97.6112 136.251 97.6089 135.969C97.9112 136.381 98.4082 136.326 98.8388 136.377C99.2441 136.425 99.5648 136.615 99.9106 136.84C100.678 137.333 101.303 137.722 102.199 137.821C103.069 137.915 103.639 137.768 104.475 137.463C105.16 137.216 106.282 136.941 106.958 137.225" fill="#5FAFEF"/>
<path d="M107.666 135.575C108.004 135.857 108.082 136.34 107.936 136.748C107.759 137.236 107.304 137.418 106.816 137.427C106.449 137.434 106.09 137.36 105.723 137.395C105.256 137.436 104.805 137.592 104.365 137.741C103.699 137.965 103.021 138.229 102.306 138.208C100.866 138.169 99.9177 136.943 98.6008 136.558C98.0535 136.398 97.3343 136.485 97.0229 135.898C96.803 135.483 96.9038 134.995 97.2198 134.669C97.3664 134.518 97.5817 134.743 97.4489 134.898C97.1809 135.212 97.2061 135.73 97.5748 135.967C97.8153 136.12 98.1817 136.097 98.4611 136.155C98.8757 136.239 99.265 136.423 99.6314 136.631C100.504 137.126 101.338 137.853 102.393 137.851C103.442 137.849 104.388 137.257 105.412 137.097C105.897 137.021 106.337 137.122 106.818 137.122C107.7 137.122 108.057 136.32 107.65 135.593C107.643 135.581 107.659 135.57 107.668 135.579" fill="#040B8F"/>
<path d="M118.299 163.815C117.949 167.024 117.653 170.242 117.321 173.454C116.996 176.61 116.801 179.787 116.373 182.932C116.352 183.084 116.107 183.045 116.11 182.896C116.169 179.668 116.57 176.431 116.93 173.227C117.282 170.066 117.765 166.951 118.285 163.815C118.285 163.808 118.301 163.808 118.299 163.815Z" fill="#5FAFEF"/>
<g opacity="0.42">
<mask id="mask17_224_2206" style="mask-type:luminance" maskUnits="userSpaceOnUse" x="38" y="29" width="15" height="74">
<path d="M38.5031 29.0106H52.3452V102.848H38.5031V29.0106Z" fill="white"/>
</mask>
<g mask="url(#mask17_224_2206)">
<mask id="mask18_224_2206" style="mask-type:luminance" maskUnits="userSpaceOnUse" x="38" y="29" width="15" height="74">
<path d="M38.5031 29.0106H52.3452V102.848H38.5031V29.0106Z" fill="white"/>
</mask>
<g mask="url(#mask18_224_2206)">
<path d="M44.343 97.9546C44.5468 95.0251 44.1392 92.1896 44.8056 89.251C45.2453 87.3163 45.7904 85.3542 46.4088 83.4608C47.6043 79.8092 49.0906 76.2356 50.3548 72.5978C51.7885 68.4672 52.6221 64.3252 52.258 59.9218C51.7931 54.3058 48.4242 50.1866 45.3965 45.7374C43.4269 42.8423 41.7161 40.1604 40.6168 36.8251C39.7717 34.2647 39.6389 31.6607 39.3984 29.0132C38.7503 30.8057 38.5304 33.4693 38.5235 35.4292C38.5075 39.7134 38.3449 43.9288 39.2976 48.1488C40.5733 53.8038 43.9262 58.5579 44.5468 64.4008C45.6553 74.819 40.1702 84.8201 42.6116 95.2635C43.1727 97.6589 43.8872 100.724 45.1331 102.851C45.1423 101.368 44.872 99.8824 44.343 97.9546Z" fill="#5FAFEF"/>
</g>
</g>
</g>
<g opacity="0.42">
<mask id="mask19_224_2206" style="mask-type:luminance" maskUnits="userSpaceOnUse" x="27" y="0" width="9" height="41">
<path d="M27.2146 0.0734863H35.4365V40.2404H27.2146V0.0734863Z" fill="white"/>
</mask>
<g mask="url(#mask19_224_2206)">
<mask id="mask20_224_2206" style="mask-type:luminance" maskUnits="userSpaceOnUse" x="27" y="0" width="9" height="41">
<path d="M27.2146 0.0734863H35.4365V40.2404H27.2146V0.0734863Z" fill="white"/>
</mask>
<g mask="url(#mask20_224_2206)">
<path d="M29.532 40.2407C28.5175 33.9554 29.1794 27.9795 31.8223 22.1779C33.5147 18.4667 35.2026 14.9435 35.3767 10.8083C35.4912 8.06683 35.4935 5.27947 34.8316 2.60442C34.6209 1.75629 34.3186 0.541402 33.5193 0.0783691C33.6659 1.74712 34.1446 3.27375 34.0621 5.04336C33.9132 8.23415 32.4727 11.1293 31.126 13.9487C28.8931 18.6249 27.4571 23.6999 27.2441 28.8918C27.125 31.7778 27.3311 34.6041 28.3045 37.3066C28.5427 37.9691 28.9824 38.7072 29.0877 39.3926C29.1267 39.3513 29.1908 39.2482 29.532 40.243" fill="#5FAFEF"/>
</g>
</g>
</g>
<g opacity="0.42">
<mask id="mask21_224_2206" style="mask-type:luminance" maskUnits="userSpaceOnUse" x="23" y="36" width="6" height="15">
<path d="M23.5316 36.4189H28.2998V50.4612H23.5316V36.4189Z" fill="white"/>
</mask>
<g mask="url(#mask21_224_2206)">
<mask id="mask22_224_2206" style="mask-type:luminance" maskUnits="userSpaceOnUse" x="23" y="36" width="6" height="15">
<path d="M23.5316 36.4189H28.2998V50.4612H23.5316V36.4189Z" fill="white"/>
</mask>
<g mask="url(#mask22_224_2206)">
<path d="M28.2264 50.4612C28.6524 47.6784 27.15 44.859 25.9202 42.459C24.8988 40.4648 24.2666 38.608 23.8315 36.4189C23.3528 38.1542 23.4994 40.5633 23.9048 42.3146C24.372 44.3272 25.3064 45.7025 26.4057 47.3919C27.0378 48.3661 27.8279 49.3655 28.1509 50.3191C28.1509 50.2389 28.1554 50.1563 28.2287 50.4612" fill="#5FAFEF"/>
</g>
</g>
</g>
<g opacity="0.42">
<mask id="mask23_224_2206" style="mask-type:luminance" maskUnits="userSpaceOnUse" x="31" y="127" width="47" height="40">
<path d="M31.4466 127.405H77.2144V166.121H31.4466V127.405Z" fill="white"/>
</mask>
<g mask="url(#mask23_224_2206)">
<mask id="mask24_224_2206" style="mask-type:luminance" maskUnits="userSpaceOnUse" x="31" y="127" width="47" height="40">
<path d="M31.4466 127.405H77.2144V166.121H31.4466V127.405Z" fill="white"/>
</mask>
<g mask="url(#mask24_224_2206)">
<path d="M77.2144 166.121C76.4861 163.586 76.6097 163.508 76.0578 162.261C74.9631 159.785 73.1446 157.835 71.3926 155.824C69.1665 153.268 66.9358 151.075 64.1303 149.152C61.2675 147.189 58.2628 145.466 55.0954 144.047C49.3309 141.463 43.1382 140.026 38.2829 135.753C35.7385 133.514 32.7497 130.612 31.4443 127.405C31.3985 130.47 33.691 134.05 35.3125 136.476C38.0722 140.602 41.8442 143.595 46.262 145.771C52.8876 149.035 70.0712 154.708 77.2121 166.119" fill="#5FAFEF"/>
</g>
</g>
</g>
<path d="M176.647 134.536C182.966 132.07 187.503 126.715 190.074 120.535C194.144 110.759 199.737 101.253 207.716 94.1332C206.168 93.881 203.983 95.6369 202.714 96.2856C198.054 98.6718 193.395 100.973 189.206 104.166C185.803 106.761 182.51 109.826 179.725 113.074C178.699 114.273 177.758 115.524 176.819 116.792C176.267 117.537 175.6 119.284 174.744 119.715C174.67 118.575 175.632 116.911 176.109 115.884C177.442 113.012 178.637 110.069 180 107.213C183.687 99.4924 188.973 92.5126 195.241 86.7132C199.226 83.0273 203.69 79.8686 207.911 76.4623C211.339 73.6956 214.294 70.3076 218.819 69.4274C222.884 68.6366 228.36 68.8612 231.264 72.2285C235.455 77.0858 235.212 83.6874 234.537 89.6541" fill="#000B49"/>
<path d="M148.882 141.631C154.058 139.71 158.174 135.357 161.293 130.94C164.618 126.231 166.929 120.941 169.634 115.873C171.02 113.276 172.524 110.731 174.324 108.398C176.145 106.037 178.275 103.981 180.639 102.168C185.59 98.3647 191.258 95.6691 196.446 92.2215C201.851 88.6319 207.345 83.5591 208.105 76.7329C208.128 76.5357 208.43 76.5265 208.421 76.7329C208.13 82.562 203.914 87.3895 199.528 90.8095C194.508 94.7224 188.696 97.4203 183.439 100.985C180.856 102.736 178.408 104.703 176.326 107.039C174.265 109.351 172.577 111.965 171.065 114.66C168.173 119.818 165.885 125.315 162.562 130.225C160.84 132.771 158.879 135.174 156.555 137.195C154.278 139.171 151.727 140.641 148.901 141.679C148.869 141.69 148.855 141.64 148.887 141.628" fill="#5FAFEF"/>
</g>
</svg>
