<svg width="305" height="262" viewBox="0 0 305 262" fill="none" xmlns="http://www.w3.org/2000/svg">
<g opacity="0.5">
<path d="M248.563 42.1909L239.638 56.2407L233.77 87.7785L241.734 110.105L250.948 115.178L278.366 105.318L299.191 72.5353L302.385 44.9153L292.868 28.3437L279.472 27.425L265.585 28.8368C265.585 28.8368 248.351 41.6505 248.565 42.1909H248.563Z" fill="url(#paint0_linear_224_2017)"/>
<path d="M176.307 127.364C176.307 127.364 207.338 181.512 241.049 184.346C267.85 186.598 255.645 169.126 250.164 165.372L255.273 154.486C255.273 154.486 273.235 169.608 270.587 181.318C266.902 197.617 248.255 204.883 229.882 198.025C215.896 192.806 193.919 175.32 178.868 148.015L176.31 127.366L176.307 127.364Z" fill="#6B2954"/>
<mask id="mask0_224_2017" style="mask-type:luminance" maskUnits="userSpaceOnUse" x="176" y="127" width="95" height="74">
<path d="M176.307 127.364C176.307 127.364 207.338 181.512 241.049 184.346C267.85 186.598 255.645 169.126 250.164 165.372L255.273 154.486C255.273 154.486 273.235 169.608 270.587 181.318C266.902 197.617 248.255 204.883 229.882 198.025C215.896 192.806 193.919 175.32 178.868 148.015L176.31 127.366L176.307 127.364Z" fill="white"/>
</mask>
<g mask="url(#mask0_224_2017)">
<path d="M193.951 144.304C193.951 144.304 190.466 149.199 191.209 155.038C193.141 170.231 212.418 187.348 225.152 192.965C237.539 198.432 249.933 197.198 257.985 193.431C273.267 186.28 269.357 168.484 263.392 159.55L287.126 189.719C287.126 189.719 274.454 198.187 266.902 201.974C259.348 205.761 242.793 212.014 236.283 213.144C229.773 214.276 229.288 217.176 220.41 216.409C211.53 215.641 204.358 210.951 196.596 203.584C188.835 196.217 186.347 187.523 179.085 178.472C171.821 169.421 166.086 161.9 165.437 157.298C164.788 152.691 166.347 139.544 166.347 139.544L193.951 144.309V144.304Z" fill="#3D5C8E"/>
<path d="M193.733 149.645C193.733 149.645 208.899 182.709 239.887 186.719C265.036 189.973 260.43 175.419 255.636 169.27C250.843 163.118 250.435 173.334 250.435 173.334L239.652 178.76L193.735 149.645H193.733Z" fill="#F3FFF7"/>
<path d="M259.117 155.562C259.117 155.562 263.923 164.026 254.43 171.494L247.909 163.391L259.117 155.562Z" fill="#2E2942"/>
<path d="M200.758 153.812C200.758 153.812 190.68 161.855 191.38 168.175C192.076 174.495 193.043 172.199 193.043 172.199C193.043 172.199 197.724 160.205 203.805 158.311C209.886 156.418 200.758 153.812 200.758 153.812Z" fill="#2E2942"/>
<path d="M209.209 162.663C209.209 162.663 199.216 170.78 199.97 176.997C200.722 183.214 201.665 180.93 201.665 180.93C201.665 180.93 206.235 169.02 212.29 167.041C218.345 165.059 209.209 162.663 209.209 162.663Z" fill="#2E2942"/>
<path d="M217.491 171.598C217.491 171.598 208.338 180.877 209.747 187.3C211.156 193.724 211.861 191.268 211.861 191.268C211.861 191.268 215.181 178.472 221.04 175.914C226.897 173.356 217.491 171.598 217.491 171.598Z" fill="#2E2942"/>
<path d="M226.341 178.442C226.341 178.442 217.967 187.172 219.379 193.596C220.788 200.019 224.776 197.808 224.776 197.808C224.776 197.808 223.256 185.868 229.869 180.671C234.953 176.677 226.344 178.442 226.344 178.442H226.341Z" fill="#2E2942"/>
<path d="M233.89 182.059C233.89 182.059 229.389 194.123 233.36 199.216C237.329 204.311 240.635 200.578 240.635 200.578C240.635 200.578 236.279 188.196 239.018 183.576C242.377 177.907 233.89 182.059 233.89 182.059Z" fill="#2E2942"/>
<path d="M245.078 182.133C245.078 182.133 245.642 195.836 250.973 199.285C256.3 202.735 258.95 198.322 258.95 198.322C258.95 198.322 249.28 190.599 251.208 182.811C252.809 176.342 245.078 182.133 245.078 182.133Z" fill="#2E2942"/>
<path d="M253.865 182.421C253.865 182.421 263.351 191.585 269.268 189.448C275.185 187.314 271.638 178.301 271.638 178.301C271.638 178.301 260.843 182.768 257.574 178.256C253.724 172.944 253.865 182.419 253.865 182.419V182.421Z" fill="#2E2942"/>
<path d="M257.208 176.792C257.208 176.792 270.846 176.049 272.005 169.569C273.164 163.089 267.485 162.211 267.485 162.211C267.485 162.211 262.098 172.879 255.758 172.737C249.419 172.595 257.21 176.792 257.21 176.792H257.208Z" fill="#2E2942"/>
</g>
<path d="M258.436 154.652C258.013 152.545 241.986 143.64 236.631 144.257L230.524 160.723C230.524 160.723 243.175 163.528 248.667 168.015C250.478 169.493 260.387 164.372 258.436 154.65V154.652Z" fill="url(#paint1_linear_224_2017)"/>
<mask id="mask1_224_2017" style="mask-type:luminance" maskUnits="userSpaceOnUse" x="230" y="144" width="29" height="25">
<path d="M258.436 154.652C258.013 152.545 241.986 143.64 236.631 144.257L230.524 160.723C230.524 160.723 243.175 163.528 248.667 168.015C250.478 169.493 260.387 164.372 258.436 154.65V154.652Z" fill="white"/>
</mask>
<g mask="url(#mask1_224_2017)">
<path d="M244.275 148.848C247.459 153.389 247.361 158.836 253.375 160.889C259.39 162.943 260.814 160.691 260.814 160.691L247.459 181.171L218.905 176.788C218.905 176.788 230.232 158.077 244.271 148.848H244.275Z" fill="url(#paint2_linear_224_2017)"/>
<path d="M232.754 161.799C232.754 161.799 241.538 160.423 247.784 165.957C249.505 167.484 253.544 165.892 257.697 161.751L254.87 171.712L238.803 181.793L230.518 174.178L232.758 161.796L232.754 161.799Z" fill="#F7F9FF"/>
</g>
<path d="M239.388 102.121C249.141 112.638 267.937 109.668 282.478 88.0126C293.775 71.1889 307.005 32.8918 280.294 28.5148C291.311 27.0558 299.777 33.3039 299.777 33.3039L300.085 66.8929L291.67 86.2204L278.648 108.079L252.59 117.808L239.388 102.123V102.121Z" fill="url(#paint3_linear_224_2017)"/>
<path d="M244.476 146.522C243.323 142.897 241.721 136.584 236.42 132.067C229.517 126.188 220.047 127.046 217.175 129.061C214.301 131.076 206.903 143.435 206.847 145.871C206.792 148.303 213.806 144.84 223.085 151.838C231.289 158.023 231.385 162.035 234.876 161.27C235.643 161.103 242.426 158.005 243.889 154.117C245.356 150.208 245.183 148.756 244.476 146.522Z" fill="url(#paint4_linear_224_2017)"/>
<mask id="mask2_224_2017" style="mask-type:luminance" maskUnits="userSpaceOnUse" x="206" y="127" width="40" height="35">
<path d="M244.476 146.522C243.323 142.897 241.721 136.584 236.42 132.067C229.517 126.188 220.047 127.046 217.175 129.061C214.301 131.076 206.903 143.435 206.847 145.871C206.792 148.303 213.806 144.84 223.085 151.838C231.289 158.023 231.385 162.035 234.876 161.27C235.643 161.103 242.426 158.005 243.889 154.117C245.356 150.208 245.183 148.756 244.476 146.522Z" fill="white"/>
</mask>
<g mask="url(#mask2_224_2017)">
<path d="M210.731 149.197C212.33 148.12 221.55 133.316 220.933 132.064C220.314 130.812 219.398 128.475 217.267 129C215.136 129.525 206.858 136.435 206.858 136.435L203.565 145.749C203.565 145.749 202.457 151.288 203.49 151.342C204.522 151.399 209.134 150.273 210.731 149.194V149.197Z" fill="url(#paint5_linear_224_2017)"/>
<path d="M216.492 126.713C216.492 126.713 213.182 127.604 217.177 129.061C221.17 130.518 220.724 130.171 221.204 131.911C221.682 133.652 226.743 130.394 234.504 137.799C239.261 142.338 242.095 146.657 240.95 149.638C240.083 151.896 239.838 155.186 241.424 155.825C244.625 157.118 247.894 143.649 247.894 143.649L242.859 128.737C242.859 128.737 233.24 121.241 232.198 120.94C231.154 120.636 216.494 126.713 216.494 126.713H216.492Z" fill="url(#paint6_linear_224_2017)"/>
</g>
<path d="M203.999 173.78C203.999 173.78 207.328 185.564 219.137 182.097L243.848 131.63L229.207 123.878L203.999 173.78Z" fill="url(#paint7_linear_224_2017)"/>
<path d="M237.991 123.754C233.902 121.674 229.598 122.507 229.207 123.88C228.816 125.254 229.948 129.597 234.459 131.322C238.971 133.046 243.261 133.249 243.908 131.47C244.557 129.687 241.918 125.756 237.991 123.754Z" fill="url(#paint8_linear_224_2017)"/>
<mask id="mask3_224_2017" style="mask-type:luminance" maskUnits="userSpaceOnUse" x="229" y="122" width="16" height="11">
<path d="M237.991 123.754C233.902 121.674 229.598 122.507 229.207 123.88C228.816 125.254 229.948 129.597 234.459 131.322C238.971 133.046 243.261 133.249 243.908 131.47C244.557 129.687 241.918 125.756 237.991 123.754Z" fill="white"/>
</mask>
<g mask="url(#mask3_224_2017)">
<path d="M240.739 133.312L244.809 134.359L244.781 130.813L237.991 126.134L234.526 128.48L240.739 133.31V133.312Z" fill="url(#paint9_linear_224_2017)"/>
</g>
<path d="M239.603 112.199L233.089 126.021C233.089 126.021 234.227 130.425 238.914 129.993L245.599 115.374L239.601 112.199H239.603Z" fill="url(#paint10_linear_224_2017)"/>
<mask id="mask4_224_2017" style="mask-type:luminance" maskUnits="userSpaceOnUse" x="233" y="112" width="13" height="19">
<path d="M239.603 112.199L233.089 126.021C233.089 126.021 234.227 130.425 238.914 129.993L245.599 115.374L239.601 112.199H239.603Z" fill="white"/>
</mask>
<g mask="url(#mask4_224_2017)">
<path d="M235.284 129.072C235.284 129.072 236.151 127.949 238.058 123.11C235.912 122.221 235.6 120.269 234.917 118.634C234.917 118.634 247.141 122.531 246.65 123.461C246.161 124.387 243.562 129.658 243.426 129.881C243.291 130.103 240.803 132.967 240.411 133.057C240.016 133.148 235.284 129.072 235.284 129.072Z" fill="url(#paint11_linear_224_2017)"/>
<path d="M236.279 129.845C236.279 129.845 238.295 129.966 238.638 129.723C238.984 129.478 242.768 120.579 242.768 120.579L243.996 122.957L243.571 129.187L241.512 131.608L236.279 129.845Z" fill="#F3FFF7"/>
</g>
<path d="M237.408 109.583L233.687 117.578C233.687 117.578 236.896 123.873 246.658 123.822L251.185 116.011C251.185 116.011 240.942 113.214 237.408 109.583Z" fill="url(#paint12_linear_224_2017)"/>
<mask id="mask5_224_2017" style="mask-type:luminance" maskUnits="userSpaceOnUse" x="233" y="109" width="19" height="15">
<path d="M237.408 109.583L233.687 117.578C233.687 117.578 236.896 123.873 246.658 123.822L251.185 116.011C251.185 116.011 240.942 113.214 237.408 109.583Z" fill="white"/>
</mask>
<g mask="url(#mask5_224_2017)">
<path d="M235.815 108.909C235.879 109.071 236.896 115.47 246.024 118.456C251.814 120.35 253.392 117.344 253.392 117.344L253.042 113.025C253.042 113.025 235.749 108.749 235.813 108.909H235.815Z" fill="url(#paint13_linear_224_2017)"/>
</g>
<path d="M239.221 162.823C239.221 162.823 229.762 174.955 218.064 170.037C208.15 165.872 205.579 155.774 205.728 151.883C205.893 147.614 212.696 137.806 214.222 137.628C214.792 137.561 216.81 138.52 217.724 140.792C219.242 144.574 220.628 150.741 228.669 152.655C237.558 154.767 243.788 152.237 244.139 152.817C244.491 153.396 240.428 161.968 239.225 162.821L239.221 162.823Z" fill="url(#paint14_linear_224_2017)"/>
<mask id="mask6_224_2017" style="mask-type:luminance" maskUnits="userSpaceOnUse" x="205" y="137" width="40" height="35">
<path d="M239.221 162.823C239.221 162.823 229.762 174.955 218.064 170.037C208.15 165.872 205.579 155.774 205.728 151.883C205.893 147.614 212.696 137.806 214.222 137.628C214.792 137.561 216.81 138.52 217.724 140.792C219.242 144.574 220.628 150.741 228.669 152.655C237.558 154.767 243.788 152.237 244.139 152.817C244.491 153.396 240.428 161.968 239.225 162.821L239.221 162.823Z" fill="white"/>
</mask>
<g mask="url(#mask6_224_2017)">
<path d="M203.894 154.488C203.894 154.488 221.172 173.924 239.199 159.322C245.667 154.083 244.757 150.586 246.113 155.08C247.55 159.833 242.836 169.817 242.836 169.817C242.836 169.817 225.139 181.404 218.943 181.993C212.744 182.583 191.95 181.912 194.172 179.048C196.395 176.187 203.894 154.486 203.894 154.486V154.488Z" fill="url(#paint15_linear_224_2017)"/>
<path d="M205.794 151.106C205.794 151.106 206.952 161.959 218.17 167.826C227.736 172.829 233.511 168.34 233.511 168.34L218.945 181.996L202.88 175.25L205.794 151.106Z" fill="#F3FFF7"/>
</g>
<path d="M215.456 137.068C214.094 136.446 213.112 139.367 213.626 141.037C214.528 143.967 218.86 151.577 223.194 153.892C230.315 157.697 241.948 159.973 243.936 153.693C244.856 150.787 243.972 150.276 242.733 149.936C242.101 149.762 241.346 149.075 240.812 149.827C238.309 153.36 233.687 151.915 228.547 150.017C220.752 147.137 217.308 140.263 215.456 137.07V137.068Z" fill="url(#paint16_linear_224_2017)"/>
<path d="M147.502 137.354C142.484 124.58 148.716 109.726 161.422 104.176C174.127 98.6267 188.495 104.483 193.512 117.257C198.53 130.032 192.298 144.886 179.592 150.435C166.887 155.985 152.52 150.128 147.502 137.354Z" fill="url(#paint17_linear_224_2017)"/>
<mask id="mask7_224_2017" style="mask-type:luminance" maskUnits="userSpaceOnUse" x="145" y="102" width="51" height="51">
<path d="M147.502 137.354C142.484 124.58 148.716 109.726 161.422 104.176C174.127 98.6263 188.495 104.483 193.512 117.257C198.53 130.031 192.298 144.885 179.592 150.435C166.887 155.985 152.52 150.128 147.502 137.354Z" fill="white"/>
</mask>
<g mask="url(#mask7_224_2017)">
<path d="M150.931 112.879C142.884 127.271 152.462 155.109 179.568 150.903C179.568 150.903 171.156 170.625 165.203 168.781C159.252 166.939 115.369 145.713 115.833 142.397C116.296 139.083 123.15 112.829 123.15 112.829C123.15 112.829 130.378 114.099 150.929 112.879H150.931Z" fill="#F3FFF7"/>
<path d="M183.728 110.19C184.584 109.438 187.293 110.913 188.809 113.115C191.058 116.38 190.928 120.018 189.888 120.831C188.25 122.112 187.8 117.803 186.328 115.637C184.725 113.275 182.094 111.625 183.726 110.188L183.728 110.19Z" fill="#F3FFF7"/>
<path d="M184.347 96.1878C184.347 96.1878 168.807 98.9077 174.839 115.198C182.888 136.939 200.13 125.215 197.762 138.686C195.717 150.325 183.221 168.736 183.221 168.736L114.852 152.371C114.852 152.371 93.4129 125.447 105.118 116.515C116.823 107.585 158.425 82.541 158.425 82.541L184.347 96.1878Z" fill="url(#paint18_linear_224_2017)"/>
</g>
<path d="M297.518 81.5957C280.802 119.08 254.146 120.969 242.734 115.601C231.321 110.233 213.714 89.2286 224.646 56.556C238.134 16.2438 268.999 13.5014 284.549 19.8395C300.945 26.5222 312.593 47.7996 297.518 81.598V81.5957ZM289.81 82.9894C306.779 48.0225 297.429 31.273 287.252 29.1025C277.606 27.0446 256.666 29.1633 245.202 53.5051C229.365 87.1323 240.472 106.021 247.307 109.803C258.113 115.784 278.033 107.257 289.81 82.9894Z" fill="url(#paint19_linear_224_2017)"/>
<mask id="mask8_224_2017" style="mask-type:luminance" maskUnits="userSpaceOnUse" x="221" y="17" width="84" height="101">
<path d="M297.518 81.5957C280.802 119.08 254.146 120.969 242.734 115.601C231.321 110.233 213.714 89.2286 224.646 56.556C238.134 16.2438 268.999 13.5014 284.549 19.8395C300.945 26.5222 312.593 47.7996 297.518 81.598V81.5957ZM289.81 82.9894C306.779 48.0225 297.429 31.273 287.252 29.1025C277.606 27.0446 256.666 29.1633 245.202 53.5051C229.365 87.1323 240.472 106.021 247.307 109.803C258.113 115.784 278.033 107.257 289.81 82.9894Z" fill="white"/>
</mask>
<g mask="url(#mask8_224_2017)">
<path d="M287.825 21.5663C280.082 17.5472 249.111 28.6002 238.869 49.5601C229.948 67.8114 222.174 94.3552 240.69 114.568L214.777 103.672L220.024 -3.35864L272.323 -2.28239C272.323 -2.28239 283.597 10.5133 287.825 21.5663Z" fill="url(#paint20_linear_224_2017)"/>
</g>
<path d="M232.38 100.876C232.38 100.876 222.154 72.7087 240.022 43.9381C254.135 21.2085 282.365 18.5336 288.753 21.9425C283.93 20.5735 256.296 22.9647 241.572 46.0388C223.19 74.8455 232.38 100.876 232.38 100.876Z" fill="#F6EFE3"/>
<path d="M266.571 108.567C266.571 108.567 281.067 101.344 291.045 80.5126C300.194 61.4193 298.992 45.8632 298.992 45.8632C298.992 45.8632 301.496 62.7184 292.561 81.2714C282.502 102.162 266.571 108.567 266.571 108.567Z" fill="#EACEA9"/>
<path d="M217.737 128.928C217.737 128.928 220.598 130.77 220.508 132.261C220.419 133.751 218.928 136.865 218.928 136.865C218.928 136.865 220.668 133.467 221.324 132.898C221.977 132.328 224.317 132.616 224.317 132.616C224.317 132.616 222.071 132.035 221.471 131.358C220.427 130.18 219.377 128.865 217.737 128.928Z" fill="#F3FFF7"/>
<path d="M226.275 155.325C226.275 155.325 232.643 157.669 236.488 157.491C240.133 157.323 242.697 156.064 242.697 156.064C242.697 156.064 239.422 157.98 236.512 158.241C231.479 158.694 226.273 155.325 226.273 155.325H226.275Z" fill="#F3FFF7"/>
<path d="M286.225 51.9604C287.276 43.0172 283.702 42.8978 286.964 39.928C291.102 36.1611 296.921 48.6889 292.949 57.2404C290.677 62.1308 285.307 59.7711 286.225 51.9604Z" fill="#F3FFF7"/>
<path d="M244.472 92.6262C242.285 93.7069 242.469 98.6198 244.429 100.122C246.387 101.621 247.365 102.526 249.6 100.934C251.84 99.3426 251.661 96.0418 249.639 94.0559C247.617 92.0723 245.887 91.9259 244.472 92.6262Z" fill="#F3FFF7"/>
<path d="M229.209 123.88C229.209 123.88 228.772 127.98 234.443 130.892C241.265 134.391 243.934 131.398 243.934 131.398C243.874 131.765 242.257 135.474 234.165 131.497C228.379 128.656 229.028 124.155 229.209 123.88Z" fill="#F2E1A5"/>
<path d="M65.0505 105.3C87.216 76.0905 167.583 96.053 178.799 124.614C182.405 133.798 184.152 145.275 182.294 157.658C180.55 169.276 180.025 205.718 150.678 236.439C126.764 261.474 106.465 265.711 89.458 259.389C73.617 253.501 61.726 231.505 53.6913 199.076C45.6565 166.644 47.67 128.201 65.0505 105.3Z" fill="url(#paint21_linear_224_2017)"/>
<mask id="mask9_224_2017" style="mask-type:luminance" maskUnits="userSpaceOnUse" x="49" y="90" width="135" height="172">
<path d="M65.0505 105.3C87.216 76.0905 167.583 96.053 178.799 124.614C182.405 133.798 184.152 145.275 182.294 157.658C180.55 169.276 180.025 205.718 150.678 236.439C126.764 261.474 106.465 265.711 89.458 259.389C73.617 253.501 61.726 231.505 53.6913 199.076C45.6565 166.644 47.67 128.201 65.0505 105.3Z" fill="white"/>
</mask>
<g mask="url(#mask9_224_2017)">
<path d="M74.057 94.3801C74.057 94.3801 34.2398 132.756 73.4676 207.594C114.158 285.223 179.26 210.451 179.909 215.846C180.559 221.243 104.943 288.99 104.943 288.99C104.943 288.99 21.719 277.827 17.1176 264.86C12.5142 251.896 12.7874 187.746 21.8471 164.683C30.9089 141.62 64.7881 99.4574 74.0548 94.3778L74.057 94.3801Z" fill="url(#paint22_linear_224_2017)"/>
<path d="M50.369 144.198C48.0075 170.823 55.4124 224.206 79.3757 248.579C101.287 270.865 135.638 260.992 135.638 260.992L119.947 279.905L40.8588 266.853L26.9609 180.388L50.369 144.198Z" fill="#F3FFF7"/>
<path d="M78.6433 95.1615C67.1047 103.927 76.3287 123.022 114.278 128.832C146.769 133.805 177.994 123.063 166.221 108.232C158.933 99.0522 102.498 77.0386 78.6433 95.1615Z" fill="url(#paint23_linear_224_2017)"/>
<path d="M80.2104 115.475C80.2104 115.475 90.9505 130.239 118.648 132.231C154.74 134.83 166.332 120.172 166.332 120.172C166.332 120.172 153.469 132.524 117.756 129.306C95.5817 127.307 80.2126 115.475 80.2126 115.475H80.2104Z" fill="#F3FFF7"/>
<path d="M142.187 139.36C142.027 136.885 146.861 136.545 153.794 133.699C160.947 130.761 165.783 128.124 166.716 130.455C167.636 132.747 164.393 138.909 157.549 141.47C148.227 144.955 142.372 142.235 142.187 139.362V139.36Z" fill="#F3FFF7"/>
</g>
<path d="M52.1241 245.454C48.2957 245.918 48.0373 246.159 47.258 245.051C46.8822 244.515 46.4381 241.856 45.1164 239.15C43.6986 236.241 41.7449 232.559 42.0545 232.095C42.7506 231.055 45.1762 230.42 46.6751 230.88C47.668 231.184 50.8024 234.135 51.7206 236.574C52.6408 239.012 52.9547 240.728 52.122 245.454H52.1241Z" fill="url(#paint24_linear_224_2017)"/>
<path d="M60.2551 170.992C52.6132 167.383 51.7442 151.671 53.2965 139.661C54.8488 127.652 64.6493 111.852 72.7503 113.415C80.8512 114.977 86.5885 131.349 83.7721 147.441C81.116 162.614 71.4691 176.292 60.2529 170.992H60.2551Z" fill="url(#paint25_linear_224_2017)"/>
<path d="M61.9034 166.845C71.0506 168.302 79.0021 153.023 79.5252 141.706C80.2255 126.6 75.6327 118.832 69.1247 117.326C63.9148 116.119 55.5982 130.354 54.4473 143.163C53.5228 153.441 55.7327 165.863 61.9034 166.845Z" fill="url(#paint26_linear_224_2017)"/>
<path d="M66.6437 124.637C66.6437 124.637 28.5859 121.782 7.87018 157.384C-12.8455 192.986 13.885 229.704 13.885 229.704L27.5887 218.998C27.5887 218.998 2.5151 177.628 21.0828 158.399C42.7657 135.946 63.2465 146.626 63.2465 146.626C63.2465 146.626 74.7681 138.2 66.6415 124.635L66.6437 124.637Z" fill="#6B2954"/>
<mask id="mask10_224_2017" style="mask-type:luminance" maskUnits="userSpaceOnUse" x="0" y="124" width="70" height="106">
<path d="M66.6437 124.637C66.6437 124.637 28.5859 121.782 7.87018 157.384C-12.8455 192.986 13.885 229.704 13.885 229.704L27.5887 218.998C27.5887 218.998 2.5151 177.628 21.0828 158.399C42.7657 135.946 63.2465 146.626 63.2465 146.626C63.2465 146.626 74.7681 138.2 66.6415 124.635L66.6437 124.637Z" fill="white"/>
</mask>
<g mask="url(#mask10_224_2017)">
<path d="M22.6008 227.311C22.6008 227.311 -4.96251 184 17.6621 155.168C38.508 128.602 62.0464 133.078 71.9132 135.687C81.7799 138.297 58.1689 183.5 58.1689 183.5L22.6008 227.309V227.311Z" fill="#3D5C8E"/>
<path d="M21.4517 206.817C22.1115 205.786 6.40927 183.016 16.2461 162.959C23.1492 148.882 40.6045 145.678 40.6045 145.678C40.6045 145.678 20.7898 207.848 21.4517 206.817Z" fill="#F3FFF7"/>
<path d="M-0.818436 208.9C-0.280367 197.705 8.52092 188.856 23.0424 191.322C35.0102 193.353 24.8573 194.352 24.8573 194.352C24.8573 194.352 1.58578 193.528 0.530998 208.967C0.530998 208.967 -1.32875 219.527 -0.818436 208.9Z" fill="#2E2942"/>
<path d="M-4.72752 194.575C-1.85995 183.783 8.57689 177.2 22.223 182.984C33.4712 187.751 23.3589 186.361 23.3589 186.361C23.3589 186.361 0.834667 180.142 -3.42505 194.956C-3.42505 194.956 -7.4499 204.822 -4.72752 194.577V194.575Z" fill="#2E2942"/>
<path d="M-4.54625 180.575C0.114893 170.501 11.5019 166.005 23.9416 174.282C34.1948 181.104 24.4839 177.819 24.4839 177.819C24.4839 177.819 3.38603 167.43 -3.32917 181.194C-3.32917 181.194 -8.97038 190.137 -4.54625 180.575Z" fill="#2E2942"/>
<path d="M-3.70258 163.954C3.82186 156.037 15.9775 155.706 25.1738 167.813C32.7538 177.79 24.5909 171.343 24.5909 171.343C24.5909 171.343 7.86592 154.261 -2.74388 164.96C-2.74388 164.96 -10.8448 171.472 -3.70258 163.956V163.954Z" fill="#2E2942"/>
<path d="M4.18037 147.833C12.3027 143.147 22.8292 148.292 30.2255 161.576C36.3621 172.6 28.733 164.796 28.733 164.796C28.3764 165.46 16.6563 144.46 4.16758 150.634C4.16758 150.634 -4.67216 152.939 4.18037 147.835V147.833Z" fill="#2E2942"/>
<path d="M19.9485 137.232C19.9485 137.232 22.0581 133.193 24.5798 135.53C28.4658 139.128 31.8074 145.011 37.1838 153.641C43.8393 164.325 35.0593 156.44 35.0593 156.44C32.053 153.632 25.942 140.524 19.9485 137.234V137.232Z" fill="#2E2942"/>
</g>
<path d="M11.6324 232.447C11.6324 232.447 2.5301 216.704 2.93365 211.847C3.13436 209.418 6.88804 203.831 11.7435 201.949C16.6011 200.065 18.7213 200.299 20.4999 201.409C22.2807 202.521 26.6258 214.63 34.2378 217.021C34.2378 217.021 17.1114 221.319 11.6324 232.447Z" fill="url(#paint27_linear_224_2017)"/>
<mask id="mask11_224_2017" style="mask-type:luminance" maskUnits="userSpaceOnUse" x="2" y="200" width="33" height="33">
<path d="M11.6324 232.447C11.6324 232.447 2.5301 216.704 2.93365 211.847C3.13436 209.418 6.88804 203.831 11.7435 201.949C16.6011 200.065 18.7213 200.299 20.4999 201.409C22.2807 202.521 26.6258 214.63 34.2378 217.021C34.2378 217.021 17.1114 221.319 11.6324 232.447Z" fill="white"/>
</mask>
<g mask="url(#mask11_224_2017)">
<path d="M13.4516 201.951C13.4516 201.951 23.2031 206.243 20.0451 213.43C17.6943 218.784 17.9334 222.256 22.7419 227.034L37.0093 227.748L35.22 209.906C28.8421 199.61 21.4757 197.925 13.4516 201.951Z" fill="url(#paint28_linear_224_2017)"/>
<path d="M7.5498 204.626C7.5498 204.626 16.6949 200.578 19.1802 203.471C21.4072 206.065 26.6812 215.72 32.6555 217.481C38.6319 219.241 33.2384 209.866 33.2384 209.866L27.7317 195.845C19.366 196.185 13.3042 200.053 7.54766 204.626H7.5498Z" fill="#F3FFF7"/>
</g>
<path d="M42.1511 232.834C41.865 232.118 42.0251 231.402 41.8778 230.994C41.2052 229.148 35.3654 231.26 32.4744 233.944C29.2844 236.909 31.3342 249.428 31.3342 249.428L18.57 242.02L15.1836 233.397L20.9337 225.568L32.6367 218.885L39.5099 219.752L46.3404 222.711L46.6777 231.213C46.255 230.947 44.2735 231.424 42.1511 232.832V232.834Z" fill="url(#paint29_linear_224_2017)"/>
<path d="M39.3129 236.571C41.495 237.38 46.5939 247.672 45.8402 251.405C45.0416 255.367 21.9494 262.563 13.714 248.34C6.75962 236.33 11.1368 225.752 18.9025 220.592C26.6682 215.429 38.7791 211.417 47.4971 219.097C55.2927 225.964 55.9418 235.641 55.6962 239.978C55.5596 242.414 52.0386 246.573 51.8742 245.188C51.7397 244.051 50.102 234.426 46.4786 231.312C45.5604 230.524 46.675 224.881 41.905 222.585C37.1328 220.286 29.7664 220.934 24.7828 224.949C19.1245 229.51 20.2882 236.087 24.0142 237.949C30.7891 241.336 38.4033 236.238 39.315 236.574L39.3129 236.571Z" fill="url(#paint30_linear_224_2017)"/>
<mask id="mask12_224_2017" style="mask-type:luminance" maskUnits="userSpaceOnUse" x="10" y="214" width="46" height="43">
<path d="M39.3129 236.571C41.495 237.38 46.5939 247.672 45.8402 251.405C45.0416 255.367 21.9494 262.563 13.714 248.34C6.75962 236.33 11.1368 225.752 18.9025 220.592C26.6682 215.429 38.7791 211.417 47.4971 219.097C55.2927 225.964 55.9418 235.641 55.6962 239.978C55.5596 242.414 52.0386 246.573 51.8742 245.188C51.7397 244.051 50.102 234.426 46.4786 231.312C45.5604 230.524 46.675 224.881 41.905 222.585C37.1328 220.286 29.7664 220.934 24.7828 224.949C19.1245 229.51 20.2882 236.087 24.0142 237.949C30.7891 241.336 38.4033 236.238 39.315 236.574L39.3129 236.571Z" fill="white"/>
</mask>
<g mask="url(#mask12_224_2017)">
<path d="M22.4383 218.498C22.4383 218.498 35.7534 211.115 44.7489 219.545C50.6271 225.055 49.7453 232.363 49.6898 236.632C49.645 240.163 50.5781 240.597 51.9211 245.47L57.3808 245.969C57.3808 245.969 59.6612 227.076 59.358 226.466C59.0548 225.858 50.0934 210.998 50.0934 210.998L36.0587 208.244L22.4361 218.498H22.4383Z" fill="url(#paint31_linear_224_2017)"/>
<path d="M28.9422 215.859C28.9422 215.859 41.952 208.389 50.3839 218.082C56.2322 224.802 55.7133 239.697 55.7133 239.697C55.7133 239.697 54.2272 226.939 49.502 222.335C41.2666 214.312 35.162 214.943 28.9422 215.859Z" fill="#F3FFF7"/>
</g>
<path d="M35.1419 139.056C30.1242 126.282 36.3563 111.428 49.0618 105.878C61.7672 100.328 76.1347 106.185 81.1524 118.959C86.1701 131.733 79.938 146.588 67.2326 152.137C54.5271 157.687 40.1597 151.83 35.1419 139.056Z" fill="url(#paint32_linear_224_2017)"/>
<mask id="mask13_224_2017" style="mask-type:luminance" maskUnits="userSpaceOnUse" x="33" y="103" width="50" height="52">
<path d="M35.1419 139.056C30.1242 126.282 36.3563 111.428 49.0618 105.878C61.7672 100.328 76.1347 106.185 81.1524 118.959C86.1701 131.733 79.938 146.587 67.2326 152.137C54.5271 157.687 40.1597 151.83 35.1419 139.056Z" fill="white"/>
</mask>
<g mask="url(#mask13_224_2017)">
<path d="M34.733 118.281C32.491 128.102 48.4217 152.896 66.3553 143.894C70.7239 141.701 75.7181 134.373 81.6774 135.987C85.0617 143.046 77.7188 155.47 65.4179 170.373C65.4179 170.373 22.7737 173.111 20.867 171.841C18.9624 170.571 -10.3027 154.457 -5.80807 150.683C-1.31348 146.909 34.7351 118.281 34.7351 118.281H34.733Z" fill="url(#paint33_linear_224_2017)"/>
<path d="M38.5805 114.577C30.5329 128.969 40.1114 156.807 67.2178 152.601C67.2178 152.601 58.8051 172.323 52.8522 170.479C46.9014 168.637 3.01876 147.411 3.4821 144.095C3.94543 140.78 10.7994 114.527 10.7994 114.527C10.7994 114.527 18.0271 115.797 38.5784 114.577H38.5805Z" fill="#F3FFF7"/>
<path d="M55.7282 109.756C56.0655 108.279 61.3138 107.471 64.5636 108.421C69.3806 109.83 71.9706 113.615 71.4838 115.308C70.7173 117.976 66.2718 113.687 63.0989 112.735C59.6377 111.695 55.0833 112.575 55.7282 109.756Z" fill="#F3FFF7"/>
</g>
<path d="M21.7702 228.601C22.5154 227.029 26.6257 220.977 35.2839 220.331C43.5065 219.716 45.394 226.656 45.394 226.656C43.1094 223.506 37.0027 220.939 33.8256 221.351C28.3872 222.056 25.0093 224.769 21.7702 228.603V228.601Z" fill="#F3FFF7"/>
<path d="M55.6157 158.852C55.6157 158.852 58.0605 165.964 62.5957 165.721C71.3479 165.253 76.5449 154.085 76.5449 154.085C76.5449 154.085 71.414 169.427 62.2562 167.511C57.405 166.496 55.6157 158.849 55.6157 158.849V158.852Z" fill="#F3FFF7"/>
<path d="M42.1232 232.863C42.1232 232.863 42.7937 232.104 43.6734 231.791C44.5531 231.476 45.7466 231.168 45.9046 230.886C46.1822 230.393 45.753 227.961 45.753 227.961C45.753 227.961 46.3979 230.801 46.7374 231.168C48.3665 232.926 50.3779 237.909 51.1743 241.493C48.9452 235.774 47.1196 232.316 46.1416 232.145C45.4178 232.019 44.2093 231.854 42.1253 232.863H42.1232Z" fill="#F3FFF7"/>
<path d="M71.8748 79.2652C64.0045 60.03 76.9737 20.436 101.3 7.6786C130.74 -7.75819 172.268 -1.89284 193.711 43.4876C196.863 50.1568 198.219 58.9672 198.144 65.4473C197.931 83.5589 193.842 90.863 188.875 97.7416C183.872 104.667 166.253 119.053 140.566 121.212C113.814 123.461 86.0312 113.861 71.877 79.2674L71.8748 79.2652Z" fill="url(#paint34_linear_224_2017)"/>
<mask id="mask14_224_2017" style="mask-type:luminance" maskUnits="userSpaceOnUse" x="69" y="0" width="130" height="122">
<path d="M71.8748 79.2652C64.0045 60.03 76.9737 20.436 101.3 7.6786C130.74 -7.75819 172.268 -1.89284 193.711 43.4876C196.863 50.1568 198.219 58.9672 198.144 65.4473C197.931 83.5589 193.842 90.863 188.875 97.7416C183.872 104.667 166.253 119.053 140.566 121.212C113.814 123.461 86.0312 113.861 71.877 79.2674L71.8748 79.2652Z" fill="white"/>
</mask>
<g mask="url(#mask14_224_2017)">
<path d="M57.9425 50.2671C57.9425 50.2671 65.4328 78.0561 81.8269 73.8073C98.2188 69.5609 96.895 48.0471 96.895 48.0471C98.9063 59.6044 97.591 81.6226 117.023 98.4823C130.213 109.925 148.039 115.966 167.378 109.168C197.875 98.4508 204.757 73.1319 195.78 40.9434C205.276 65.3144 210.573 88.2692 197.888 120.109C197.888 120.109 158.98 139.7 153.337 139.562C147.693 139.427 98.2209 130.786 94.6509 131.607C91.0787 132.429 66.2207 137.014 61.3802 125.481C56.5397 113.948 50.6658 87.4136 50.6658 87.4136L57.9425 50.2649V50.2671Z" fill="url(#paint35_linear_224_2017)"/>
<path d="M49.2137 70.0607C49.2137 70.0607 59.7637 75.4937 71.1508 72.9044C71.9322 75.1853 79.2325 82.5704 76.9201 81.967C75.1051 81.4942 76.5357 85.1237 76.9862 85.9635C81.0922 93.6189 85.7235 92.716 87.4338 95.4134C119.466 145.914 194.606 111.665 201.244 89.7867L158.263 152.124L62.7039 135.649C62.7039 135.649 49.0109 105.876 49.1838 101.22C49.3568 96.5617 49.2137 70.0629 49.2137 70.0629V70.0607Z" fill="#F3FFF7"/>
</g>
<path d="M117.141 91.7929C116.302 92.3873 132.021 114.471 163.093 107.295C189.097 101.288 193.929 82.2552 193.929 82.2552C193.929 82.2552 176.724 102.481 160.896 104.168C126.692 107.813 117.978 91.1962 117.139 91.7907L117.141 91.7929Z" fill="#F3FFF7"/>
<path d="M128.155 42.1027C141.66 37.1312 147.948 56.5916 166.573 53.7456C185.201 50.8996 180.268 37.2438 188.194 39.0721C196.12 40.8981 199.829 74.5862 192.369 85.1145C184.908 95.6429 177.343 101.92 165.064 104.969C152.786 108.018 130.888 108.056 120.602 96.2958C106.382 80.0327 104.059 50.9739 128.153 42.1049L128.155 42.1027Z" fill="url(#paint36_linear_224_2017)"/>
<mask id="mask15_224_2017" style="mask-type:luminance" maskUnits="userSpaceOnUse" x="109" y="38" width="88" height="69">
<path d="M128.155 42.1027C141.66 37.1312 147.948 56.5916 166.573 53.7456C185.201 50.8996 180.268 37.2438 188.194 39.0721C196.12 40.8981 199.829 74.5862 192.369 85.1145C184.908 95.6429 177.343 101.92 165.064 104.969C152.786 108.018 130.888 108.056 120.602 96.2958C106.382 80.0327 104.059 50.9739 128.153 42.1049L128.155 42.1027Z" fill="white"/>
</mask>
<g mask="url(#mask15_224_2017)">
<path d="M107.951 77.9951C107.951 77.9951 132.822 106.342 165.982 96.1631C200.768 85.4839 209.251 59.4872 209.251 59.4872L200.709 90.1739C200.709 90.1739 184.5 111.607 179.995 113.809C175.488 116.013 113.445 111.363 113.445 111.363L104.866 86.6682L107.951 77.9951Z" fill="url(#paint37_linear_224_2017)"/>
</g>
<path d="M153.771 66.9715C156.493 66.7689 157.663 78.2046 157.65 81.931C157.625 89.4895 154.734 96.6585 151.855 96.7351C148.975 96.8117 147.779 87.614 147.803 82.1426C147.826 76.6015 149.654 67.2755 153.771 66.9693V66.9715Z" fill="#00FFFB"/>
<path d="M182.689 61.6622C184.882 61.3785 186.612 71.729 186.464 75.4238C186.114 84.0901 183.163 90.3045 181.124 90.5004C178.385 90.7616 178.417 80.5934 178.387 75.1649C178.351 69.0699 179.478 62.0788 182.691 61.6622H182.689Z" fill="#00FFFB"/>
<path d="M111.06 16.7118C109.036 9.29286 118.433 5.21751 128.487 4.24258C138.542 3.26539 155.846 8.43951 153.369 15.9125C151.927 20.2648 141.45 16.8964 135.181 16.2412C121.798 14.843 113.001 23.8178 111.06 16.7118Z" fill="#F3FFF7"/>
<path d="M75.8975 81.4808C63.4365 75.0548 62.1917 59.9039 64.2414 48.1147C66.2016 36.8411 77.7017 22.8182 88.4653 24.2075C100.583 25.7723 110.024 40.3152 106.939 58.2513C104.96 69.7658 97.9626 78.7676 89.8467 82.0076C85.3201 83.8157 80.4455 83.8269 75.8975 81.483V81.4808Z" fill="url(#paint38_linear_224_2017)"/>
<mask id="mask16_224_2017" style="mask-type:luminance" maskUnits="userSpaceOnUse" x="63" y="24" width="45" height="60">
<path d="M75.8975 81.4808C63.4365 75.0548 62.1917 59.9039 64.2414 48.1147C66.2016 36.8411 77.7017 22.8182 88.4653 24.2075C100.583 25.7723 110.024 40.3152 106.939 58.2513C104.96 69.7658 97.9626 78.7676 89.8467 82.0076C85.3201 83.8157 80.4455 83.8269 75.8975 81.483V81.4808Z" fill="white"/>
</mask>
<g mask="url(#mask16_224_2017)">
<path d="M58.2671 45.854C58.2671 45.854 68.9047 59.0573 92.1548 38.0343C92.1548 38.0343 95.8252 42.4632 98.4088 42.4519C101.001 42.4406 100.179 38.676 101.744 38.613C104.509 38.5004 106.463 41.9993 106.463 41.9993L111.739 52.969C111.739 52.969 114.393 89.2599 112.465 89.753C110.537 90.2438 87.7371 96.9715 84.7158 96.7644C81.6945 96.5572 65.6357 99.428 62.8749 97.4511C60.1162 95.4742 58.2671 45.854 58.2671 45.854Z" fill="url(#paint39_linear_224_2017)"/>
<path d="M63.3403 65.7622C63.3403 65.7622 68.2619 80.9243 81.7136 81.6268C98.0565 82.4779 105.963 63.675 107.389 54.7047C107.868 59.8631 105.173 88.5706 77.2319 86.7559C50.0593 84.9906 63.3381 65.7622 63.3381 65.7622H63.3403Z" fill="#F3FFF7"/>
</g>
<path d="M72.7673 73.285C62.8963 69.1488 62.324 57.1367 64.0493 48.1957C65.6998 39.6487 73.5189 30.1786 81.8889 31.0995C91.3115 32.1352 97.7705 42.8437 95.1719 56.4409C92.5713 70.0382 81.733 77.0406 72.7673 73.285Z" fill="url(#paint40_linear_224_2017)"/>
<mask id="mask17_224_2017" style="mask-type:luminance" maskUnits="userSpaceOnUse" x="63" y="31" width="33" height="44">
<path d="M72.7673 73.285C62.8963 69.1488 62.324 57.1367 64.0493 48.1957C65.6998 39.6487 73.5189 30.1786 81.8889 31.0995C91.3115 32.1352 97.7705 42.8437 95.1719 56.4409C92.5713 70.0382 81.733 77.0406 72.7673 73.285Z" fill="white"/>
</mask>
<g mask="url(#mask17_224_2017)">
<path d="M63.5963 59.0146C63.5963 59.0146 66.0902 76.685 81.9334 71.5987C96.7239 66.8501 95.8677 50.3663 95.8677 50.3663C95.8677 50.3663 99.5552 67.8498 82.3519 74.3073C65.1486 80.7671 63.5963 59.0124 63.5963 59.0124V59.0146Z" fill="#F3FFF7"/>
<path d="M64.6254 44.7799C64.6254 44.7799 71.3897 33.826 79.7106 32.2364C90.1111 30.2483 95.4385 41.8754 95.4385 41.8754C95.4385 41.8754 91.4542 28.1813 79.6914 30.5432C67.9286 32.9051 64.6254 44.7822 64.6254 44.7822V44.7799Z" fill="#F3FFF7"/>
</g>
<path d="M75.4321 74.0798C77.4136 74.467 82.4142 75.2371 83.0377 77.0924C84.6733 81.9558 76.0343 80.8953 74.3944 79.5758C76.9375 81.1047 81.3295 83.5274 88.1942 80.8795C88.1942 80.8795 90.8782 78.3037 89.407 76.9212C88.1237 75.7144 85.9715 76.3561 84.8462 74.3297C84.0904 72.9675 87.2654 71.1842 89.1316 68.9664L83.2405 72.0488C83.2405 72.0488 78.8164 73.2827 75.43 74.0798H75.4321Z" fill="#F3FFF7"/>
<path d="M157.059 56.594C156.574 57.6027 162.502 63.1416 168.309 62.0653C173.227 61.1534 177.228 55.538 177.288 53.4485C177.322 52.2485 173.346 56.4927 167.667 57.3258C161.652 58.2084 157.663 55.3399 157.059 56.5962V56.594Z" fill="#140837"/>
<path d="M147.348 43.3751C146.641 44.8453 158.017 54.6172 169.323 51.134C176.307 48.9815 181.581 41.6413 181.669 38.595C181.718 36.8455 178.867 44.046 168.708 46.579C159.023 48.995 148.229 41.5423 147.35 43.3751H147.348Z" fill="url(#paint41_linear_224_2017)"/>
<path d="M114.89 64.6952C113.573 64.3597 114.041 57.3934 118.576 52.7056C126.303 44.717 133.593 45.1921 133.941 45.8045C135.555 48.6347 128.103 49.2472 121.377 55.752C116.494 60.4758 116.485 65.1028 114.89 64.6952Z" fill="#B44E80"/>
<path d="M156.465 15.9981C156.32 13.8456 159.587 13.3457 161.178 13.9401C162.632 14.485 163.823 15.2911 163.926 16.7006C164.037 18.2339 162.26 19.0625 160.012 18.9094C157.413 18.7315 156.519 16.7861 156.465 15.9981Z" fill="#F3FFF7"/>
<g opacity="0.05">
<path d="M144.112 67.8834C144.557 67.8879 145.067 68.0208 145.567 68.0816C150.174 68.6377 154.846 68.2302 159.445 67.4534C170.164 65.6431 180.439 61.4552 190.051 56.1302C190.446 55.9118 190.841 55.6889 191.234 55.466L191.42 55.4075C191.612 55.4255 191.616 55.4277 191.787 55.5223L191.911 55.6799C191.969 55.8758 191.969 55.878 191.949 56.0807L191.858 56.2631C191.806 56.3058 191.762 56.3554 191.706 56.3937C191.702 56.3937 191.367 56.585 191.364 56.5873C180.18 62.8895 168.074 67.7416 155.478 69.0588C151.917 69.4303 148.315 69.5744 144.777 69.034C144.557 69.0025 144.337 68.9642 144.121 68.9192H144.106C143.927 68.8381 143.925 68.8336 143.788 68.6895L143.715 68.5004C143.715 68.2955 143.715 68.2932 143.792 68.1041L143.931 67.96C143.991 67.9352 144.053 67.9082 144.11 67.8812L144.112 67.8834Z" fill="#381D59"/>
<path d="M144.162 70.0607C144.64 70.0629 145.161 70.2048 145.68 70.2656C150.26 70.8082 154.917 70.4029 159.495 69.6306C170.653 67.7461 181.295 63.2992 191.286 57.6433L191.471 57.5847C191.538 57.5892 191.604 57.5847 191.666 57.6027C191.837 57.6568 191.854 57.7198 191.96 57.8572L192.018 58.053L191.999 58.2579L191.907 58.4403C191.856 58.4831 191.811 58.5326 191.755 58.5709C191.751 58.5709 191.416 58.7623 191.414 58.7645C180.247 65.0577 168.204 69.9301 155.436 71.245C151.772 71.621 148.012 71.7831 144.437 71.1482C144.32 71.1279 144.153 71.0942 144.153 71.0942C143.974 71.0154 143.974 71.0131 143.835 70.869L143.763 70.6776C143.763 70.475 143.763 70.4705 143.839 70.2836L143.978 70.1372C144.04 70.1125 144.1 70.0855 144.16 70.0584L144.162 70.0607Z" fill="#381D59"/>
<path d="M144.209 72.2404C144.679 72.2426 145.206 72.3845 145.727 72.4453C150.301 72.9857 154.958 72.5826 159.542 71.8103C170.662 69.9325 181.344 65.4811 191.333 59.8229L191.519 59.7644C191.711 59.7824 191.715 59.7847 191.886 59.8792L192.01 60.0368C192.067 60.2327 192.067 60.235 192.048 60.4376L191.956 60.62C191.905 60.6628 191.86 60.7123 191.805 60.7506C191.8 60.7506 191.465 60.942 191.463 60.9442C180.277 67.2486 168.164 72.0985 155.577 73.4157C151.904 73.7985 148.174 73.9651 144.553 73.3391C144.41 73.3144 144.205 73.2739 144.205 73.2739C144.025 73.195 144.025 73.1928 143.887 73.0487L143.814 72.8573V72.6524L143.891 72.4633L144.032 72.3169C144.092 72.2922 144.151 72.2651 144.211 72.2381L144.209 72.2404Z" fill="#381D59"/>
<path d="M144.258 74.4175C144.721 74.422 145.255 74.5594 145.776 74.6224C150.352 75.1628 155.009 74.7597 159.591 73.9875C170.273 72.1817 180.584 67.9893 190.197 62.6643C190.592 62.4459 190.987 62.223 191.38 62.0001L191.565 61.9415C191.758 61.9595 191.762 61.9618 191.933 62.0564L192.057 62.214C192.114 62.4099 192.114 62.4121 192.095 62.6148L192.003 62.7971C191.952 62.8399 191.907 62.8894 191.852 62.9277C191.847 62.9277 191.512 63.1191 191.51 63.1214C180.36 69.4055 168.324 74.2666 155.624 75.5928C151.938 75.9778 148.212 76.1602 144.536 75.505C144.416 75.4848 144.252 75.451 144.252 75.451C144.072 75.3722 144.07 75.3699 143.933 75.2236L143.861 75.0344C143.861 74.8295 143.861 74.8273 143.938 74.6382L144.076 74.4941C144.136 74.4693 144.198 74.4423 144.256 74.4153L144.258 74.4175Z" fill="#381D59"/>
<path d="M144.307 76.5971C144.788 76.6016 145.306 76.7412 145.825 76.802C150.405 77.3446 155.069 76.9371 159.64 76.167C170.76 74.2892 181.44 69.8378 191.431 64.1796L191.617 64.1211C191.809 64.1391 191.813 64.1414 191.984 64.2359L192.108 64.3935L192.166 64.5894L192.146 64.7943L192.054 64.9767L191.903 65.1073C181.622 70.9298 170.498 75.5366 158.967 77.3401C154.244 78.0786 149.408 78.4929 144.719 77.7071C144.546 77.6778 144.301 77.6305 144.301 77.6305C144.121 77.5517 144.119 77.5495 143.983 77.4031L143.91 77.214C143.91 77.0361 143.887 76.9753 143.987 76.8177C144.06 76.7074 144.185 76.6488 144.305 76.5971H144.307Z" fill="#381D59"/>
<path d="M144.356 78.7743C144.815 78.7788 145.351 78.9184 145.874 78.9792C150.454 79.5196 155.113 79.1143 159.689 78.3443C170.401 76.534 180.637 72.3708 190.295 67.0211C190.69 66.8027 191.085 66.5798 191.478 66.3569L191.664 66.2983C191.856 66.3164 191.86 66.3186 192.031 66.4132L192.155 66.5708L192.212 66.7667L192.193 66.9716L192.101 67.1539L191.95 67.2845C181.6 73.1454 170.538 77.7161 159.014 79.5173C154.27 80.2581 149.432 80.6882 144.696 79.8708C144.553 79.8461 144.348 79.8055 144.348 79.8055C144.168 79.7267 144.166 79.7245 144.03 79.5781L143.957 79.389C143.957 79.1841 143.957 79.1818 144.034 78.9927L144.173 78.8486C144.232 78.8238 144.294 78.7968 144.352 78.7698L144.356 78.7743Z" fill="#381D59"/>
<path d="M144.403 80.9539C144.866 80.9584 145.4 81.0957 145.921 81.1588C150.499 81.7014 155.156 81.2961 159.736 80.5238C170.894 78.6393 181.538 74.1947 191.527 68.5364L191.713 68.4779L191.907 68.4959L192.078 68.5927L192.202 68.7504L192.259 68.9462L192.24 69.1511L192.148 69.3335C192.097 69.3763 192.052 69.4258 191.997 69.4641C191.992 69.4641 191.657 69.6555 191.655 69.6577C180.488 75.9509 168.437 80.8053 155.769 82.1292C152.211 82.5007 148.605 82.6448 145.067 82.1044C144.847 82.0729 144.627 82.0346 144.412 81.9896L144.217 81.9063L144.081 81.7599L144.008 81.5708V81.3659L144.085 81.1768L144.226 81.0304C144.286 81.0057 144.345 80.9787 144.405 80.9516L144.403 80.9539Z" fill="#381D59"/>
<path d="M144.452 83.1311C144.922 83.1334 145.452 83.2752 145.97 83.336C150.544 83.8764 155.201 83.4734 159.785 82.7011C170.478 80.8953 180.778 76.7029 190.391 71.3779C190.786 71.1595 191.181 70.9366 191.574 70.7137L191.76 70.6552C191.952 70.6732 191.956 70.6754 192.127 70.77L192.251 70.9276C192.309 71.1235 192.309 71.1257 192.289 71.3284L192.197 71.5107C192.146 71.5535 192.101 71.6031 192.046 71.6413C192.042 71.6413 191.706 71.8327 191.704 71.835C180.565 78.1124 168.495 82.9803 155.818 84.3064C152.124 84.6937 148.407 84.8716 144.73 84.2186C144.612 84.1961 144.446 84.1646 144.446 84.1646L144.267 84.0835L144.13 83.9394L144.057 83.7481V83.5432C144.134 83.354 144.134 83.3518 144.273 83.2077C144.333 83.1829 144.393 83.1559 144.452 83.1289V83.1311Z" fill="#381D59"/>
<path d="M144.499 85.3107C144.962 85.3152 145.496 85.4525 146.017 85.5156C150.593 86.056 155.25 85.6529 159.832 84.8806C170.544 83.0704 180.825 78.8824 190.438 73.5575C190.833 73.3391 191.228 73.1162 191.621 72.8933L191.806 72.8347L192.001 72.8527L192.172 72.9495L192.295 73.1072L192.353 73.303L192.334 73.5079L192.242 73.6903C192.191 73.7331 192.146 73.7826 192.09 73.8209C192.086 73.8209 191.751 74.0123 191.749 74.0145C180.56 80.319 168.417 85.1914 155.771 86.495C152.107 86.871 148.347 87.0354 144.772 86.3982C144.653 86.3779 144.488 86.3442 144.488 86.3442C144.309 86.2654 144.307 86.2631 144.17 86.1168L144.098 85.9276C144.098 85.7227 144.098 85.7205 144.174 85.5313L144.313 85.3872C144.373 85.3625 144.435 85.3355 144.493 85.3084L144.499 85.3107Z" fill="#381D59"/>
<path d="M144.548 87.4903C145.029 87.4948 145.548 87.6344 146.067 87.6952C150.644 88.2355 155.301 87.8347 159.881 87.0602C171.001 85.1801 181.682 80.731 191.672 75.0728L191.858 75.0143C192.05 75.0323 192.054 75.0345 192.225 75.1291L192.349 75.2867L192.407 75.4826L192.388 75.6875L192.296 75.8699L192.144 76.0005C181.863 81.823 170.739 86.4298 159.209 88.2333C154.477 88.974 149.626 89.4041 144.89 88.5868C144.747 88.562 144.542 88.5215 144.542 88.5215C144.363 88.4427 144.361 88.4404 144.224 88.2941L144.151 88.1049C144.151 87.9 144.151 87.8978 144.228 87.7087L144.367 87.5646C144.427 87.5398 144.489 87.5128 144.546 87.4858L144.548 87.4903Z" fill="#381D59"/>
<path d="M144.598 89.6675C145.063 89.672 145.595 89.8116 146.116 89.8724C150.691 90.4105 155.348 90.0097 159.93 89.2375C170.643 87.4272 180.879 83.264 190.536 77.9143C190.931 77.6959 191.326 77.473 191.719 77.2501L191.905 77.1915L192.099 77.2095L192.27 77.3064L192.394 77.464L192.452 77.6599C192.432 77.8625 192.432 77.867 192.343 78.0471L192.191 78.1777C181.803 84.0611 170.779 88.6093 159.256 90.4105C154.511 91.1513 149.673 91.5813 144.937 90.764C144.794 90.7393 144.589 90.6987 144.589 90.6987C144.41 90.6199 144.408 90.6177 144.271 90.4713L144.198 90.2822C144.198 90.0773 144.198 90.075 144.275 89.8859L144.414 89.7418C144.474 89.717 144.536 89.69 144.593 89.663L144.598 89.6675Z" fill="#381D59"/>
<path d="M144.645 91.8468C145.108 91.8513 145.642 91.9887 146.163 92.0517C150.74 92.5943 155.397 92.1891 159.977 91.4168C171.138 89.5322 181.778 85.0853 191.768 79.4294L191.954 79.3708C192.146 79.3889 192.151 79.3911 192.321 79.4857L192.445 79.6433C192.503 79.8392 192.503 79.8414 192.484 80.0441L192.392 80.2265C192.341 80.2692 192.296 80.3188 192.24 80.357C192.236 80.357 191.901 80.5484 191.899 80.5507C180.74 86.8393 168.68 91.6982 156.012 93.0221C152.344 93.4049 148.61 93.5715 144.988 92.9456C144.845 92.9208 144.64 92.8803 144.64 92.8803C144.482 92.8127 144.42 92.8128 144.322 92.6529C144.288 92.5944 144.273 92.5268 144.249 92.4638V92.2589L144.326 92.0697L144.467 91.9234C144.527 91.8986 144.587 91.8716 144.647 91.8446L144.645 91.8468Z" fill="#381D59"/>
<path d="M144.694 94.0243C145.164 94.0266 145.691 94.1684 146.212 94.2292C150.788 94.7696 155.445 94.3666 160.027 93.5943C170.715 91.7885 181.02 87.5961 190.633 82.2711C191.028 82.0527 191.423 81.8298 191.815 81.6069L192.001 81.5483L192.196 81.5663L192.366 81.6632L192.49 81.8208L192.548 82.0167C192.535 82.1563 192.518 82.2981 192.439 82.4039C192.277 82.6111 192.012 82.6921 191.777 82.825C180.653 89.0731 168.7 93.8599 156.151 95.1906C152.434 95.5847 148.648 95.767 144.971 95.1141C144.854 95.0916 144.687 95.06 144.687 95.06C144.508 94.9812 144.508 94.979 144.369 94.8349L144.297 94.6435V94.4386L144.374 94.2495L144.514 94.1031C144.574 94.0783 144.634 94.0513 144.694 94.0243Z" fill="#381D59"/>
<path d="M144.743 96.2039C145.219 96.2084 145.742 96.3457 146.261 96.4088C150.836 96.9492 155.493 96.5461 160.075 95.7738C170.783 93.9658 181.069 89.7756 190.681 84.4507C191.076 84.2323 191.471 84.0094 191.864 83.7864L192.05 83.7279L192.244 83.7459L192.415 83.8427C192.539 84.0003 192.541 84.0026 192.597 84.1962L192.577 84.4011C192.381 84.7906 191.997 84.9077 191.653 85.0991C180.614 91.2774 168.653 96.0485 156.198 97.3702C152.474 97.7642 148.695 97.9466 145.018 97.2936C144.901 97.2711 144.734 97.2396 144.734 97.2396C144.555 97.1608 144.555 97.1585 144.416 97.0144L144.343 96.8231V96.6182L144.42 96.429L144.561 96.2827C144.621 96.2579 144.681 96.2309 144.74 96.2039H144.743Z" fill="#381D59"/>
</g>
</g>
<defs>
<linearGradient id="paint0_linear_224_2017" x1="273.286" y1="46.7069" x2="265.06" y2="133.77" gradientUnits="userSpaceOnUse">
<stop stop-color="#00B2FF"/>
<stop offset="1" stop-color="#006B99"/>
</linearGradient>
<linearGradient id="paint1_linear_224_2017" x1="232.327" y1="161.167" x2="256.335" y2="151.737" gradientUnits="userSpaceOnUse">
<stop stop-color="#B8E6FF"/>
<stop offset="1" stop-color="#5FAFEF"/>
</linearGradient>
<linearGradient id="paint2_linear_224_2017" x1="245.101" y1="146.075" x2="238.194" y2="173.802" gradientUnits="userSpaceOnUse">
<stop stop-color="#395283"/>
<stop offset="1" stop-color="#508AC1"/>
</linearGradient>
<linearGradient id="paint3_linear_224_2017" x1="235.634" y1="45.1288" x2="283.714" y2="77.4833" gradientUnits="userSpaceOnUse">
<stop stop-color="#FFEA9B"/>
<stop offset="1" stop-color="#821248"/>
</linearGradient>
<linearGradient id="paint4_linear_224_2017" x1="208.482" y1="152.802" x2="239.085" y2="140.781" gradientUnits="userSpaceOnUse">
<stop stop-color="#395283"/>
<stop offset="1" stop-color="#508AC1"/>
</linearGradient>
<linearGradient id="paint5_linear_224_2017" x1="218.817" y1="144.471" x2="210.925" y2="132.001" gradientUnits="userSpaceOnUse">
<stop stop-color="#B8E6FF"/>
<stop offset="1" stop-color="#5FAFEF"/>
</linearGradient>
<linearGradient id="paint6_linear_224_2017" x1="243.549" y1="149.578" x2="212.544" y2="126.771" gradientUnits="userSpaceOnUse">
<stop stop-color="#B8E6FF"/>
<stop offset="1" stop-color="#5FAFEF"/>
</linearGradient>
<linearGradient id="paint7_linear_224_2017" x1="219.184" y1="149.663" x2="238.924" y2="159.017" gradientUnits="userSpaceOnUse">
<stop stop-color="#FFEA9B"/>
<stop offset="1" stop-color="#952240"/>
</linearGradient>
<linearGradient id="paint8_linear_224_2017" x1="225.617" y1="132.465" x2="249.914" y2="122.921" gradientUnits="userSpaceOnUse">
<stop stop-color="#FFEA9B"/>
<stop offset="1" stop-color="#952240"/>
</linearGradient>
<linearGradient id="paint9_linear_224_2017" x1="240.728" y1="137.331" x2="233.486" y2="129.922" gradientUnits="userSpaceOnUse">
<stop stop-color="#FFEA9B"/>
<stop offset="1" stop-color="#952240"/>
</linearGradient>
<linearGradient id="paint10_linear_224_2017" x1="228.516" y1="125.793" x2="246.708" y2="118.647" gradientUnits="userSpaceOnUse">
<stop stop-color="#B8E6FF"/>
<stop offset="1" stop-color="#5FAFEF"/>
</linearGradient>
<linearGradient id="paint11_linear_224_2017" x1="234.782" y1="125.604" x2="239.203" y2="128.322" gradientUnits="userSpaceOnUse">
<stop stop-color="#395283"/>
<stop offset="1" stop-color="#508AC1"/>
</linearGradient>
<linearGradient id="paint12_linear_224_2017" x1="228.492" y1="122.621" x2="252.398" y2="113.23" gradientUnits="userSpaceOnUse">
<stop stop-color="#FFEA9B"/>
<stop offset="1" stop-color="#952240"/>
</linearGradient>
<linearGradient id="paint13_linear_224_2017" x1="239.419" y1="99.0703" x2="251.811" y2="117.803" gradientUnits="userSpaceOnUse">
<stop stop-color="#FFEA9B"/>
<stop offset="1" stop-color="#952240"/>
</linearGradient>
<linearGradient id="paint14_linear_224_2017" x1="246.071" y1="143.281" x2="258.911" y2="138.237" gradientUnits="userSpaceOnUse">
<stop stop-color="#B8E6FF"/>
<stop offset="1" stop-color="#5FAFEF"/>
</linearGradient>
<linearGradient id="paint15_linear_224_2017" x1="-5264.03" y1="9522.43" x2="-5268.04" y2="9528.59" gradientUnits="userSpaceOnUse">
<stop stop-color="#395283"/>
<stop offset="1" stop-color="#508AC1"/>
</linearGradient>
<linearGradient id="paint16_linear_224_2017" x1="236.02" y1="159.776" x2="204.823" y2="136.828" gradientUnits="userSpaceOnUse">
<stop stop-color="#B8E6FF"/>
<stop offset="1" stop-color="#5FAFEF"/>
</linearGradient>
<linearGradient id="paint17_linear_224_2017" x1="145.634" y1="138.17" x2="231.522" y2="104.433" gradientUnits="userSpaceOnUse">
<stop stop-color="#B8E6FF"/>
<stop offset="1" stop-color="#5FAFEF"/>
</linearGradient>
<linearGradient id="paint18_linear_224_2017" x1="150.212" y1="105.526" x2="144.369" y2="151.579" gradientUnits="userSpaceOnUse">
<stop stop-color="#395283"/>
<stop offset="1" stop-color="#508AC1"/>
</linearGradient>
<linearGradient id="paint19_linear_224_2017" x1="222.541" y1="84.4771" x2="322.809" y2="45.0914" gradientUnits="userSpaceOnUse">
<stop stop-color="#FFEA9B"/>
<stop offset="1" stop-color="#952240"/>
</linearGradient>
<linearGradient id="paint20_linear_224_2017" x1="248.023" y1="31.7878" x2="208.293" y2="132.453" gradientUnits="userSpaceOnUse">
<stop stop-color="#FFEA9B"/>
<stop offset="1" stop-color="#952240"/>
</linearGradient>
<linearGradient id="paint21_linear_224_2017" x1="97.8049" y1="177.722" x2="189.591" y2="141.668" gradientUnits="userSpaceOnUse">
<stop stop-color="#B8E6FF"/>
<stop offset="1" stop-color="#5FAFEF"/>
</linearGradient>
<linearGradient id="paint22_linear_224_2017" x1="94.6634" y1="172.453" x2="89.017" y2="269.441" gradientUnits="userSpaceOnUse">
<stop stop-color="#395283"/>
<stop offset="1" stop-color="#508AC1"/>
</linearGradient>
<linearGradient id="paint23_linear_224_2017" x1="126.128" y1="80.7961" x2="111.539" y2="151.183" gradientUnits="userSpaceOnUse">
<stop stop-color="#140837"/>
<stop offset="1" stop-color="#3F7DA0"/>
</linearGradient>
<linearGradient id="paint24_linear_224_2017" x1="52.3217" y1="246.996" x2="46.6209" y2="231.006" gradientUnits="userSpaceOnUse">
<stop stop-color="#B8E6FF"/>
<stop offset="1" stop-color="#5FAFEF"/>
</linearGradient>
<linearGradient id="paint25_linear_224_2017" x1="51.9486" y1="144.412" x2="63.0988" y2="142.894" gradientUnits="userSpaceOnUse">
<stop stop-color="#395283"/>
<stop offset="1" stop-color="#508AC1"/>
</linearGradient>
<linearGradient id="paint26_linear_224_2017" x1="65.8353" y1="167.814" x2="69.7451" y2="125.94" gradientUnits="userSpaceOnUse">
<stop stop-color="#140837"/>
<stop offset="1" stop-color="#3F7DA0"/>
</linearGradient>
<linearGradient id="paint27_linear_224_2017" x1="7.70011" y1="218.963" x2="28.0384" y2="210.974" gradientUnits="userSpaceOnUse">
<stop stop-color="#B8E6FF"/>
<stop offset="1" stop-color="#5FAFEF"/>
</linearGradient>
<linearGradient id="paint28_linear_224_2017" x1="3573.18" y1="1748.6" x2="3582.89" y2="1752.37" gradientUnits="userSpaceOnUse">
<stop stop-color="#395283"/>
<stop offset="1" stop-color="#508AC1"/>
</linearGradient>
<linearGradient id="paint29_linear_224_2017" x1="40.9326" y1="221.476" x2="24.5637" y2="233.276" gradientUnits="userSpaceOnUse">
<stop stop-color="#395283"/>
<stop offset="1" stop-color="#508AC1"/>
</linearGradient>
<linearGradient id="paint30_linear_224_2017" x1="18.604" y1="242.392" x2="59.8171" y2="226.203" gradientUnits="userSpaceOnUse">
<stop stop-color="#B8E6FF"/>
<stop offset="1" stop-color="#5FAFEF"/>
</linearGradient>
<linearGradient id="paint31_linear_224_2017" x1="34.8991" y1="208.225" x2="60.2238" y2="236.274" gradientUnits="userSpaceOnUse">
<stop stop-color="#395283"/>
<stop offset="1" stop-color="#508AC1"/>
</linearGradient>
<linearGradient id="paint32_linear_224_2017" x1="33.2758" y1="139.871" x2="119.164" y2="106.134" gradientUnits="userSpaceOnUse">
<stop stop-color="#B8E6FF"/>
<stop offset="1" stop-color="#5FAFEF"/>
</linearGradient>
<linearGradient id="paint33_linear_224_2017" x1="41.9735" y1="131.915" x2="33.3969" y2="159.711" gradientUnits="userSpaceOnUse">
<stop stop-color="#395283"/>
<stop offset="1" stop-color="#508AC1"/>
</linearGradient>
<linearGradient id="paint34_linear_224_2017" x1="173.288" y1="43.7371" x2="207.323" y2="30.3679" gradientUnits="userSpaceOnUse">
<stop stop-color="#B8E6FF"/>
<stop offset="1" stop-color="#5FAFEF"/>
</linearGradient>
<linearGradient id="paint35_linear_224_2017" x1="107.37" y1="117.265" x2="126.525" y2="84.4805" gradientUnits="userSpaceOnUse">
<stop stop-color="#395283"/>
<stop offset="1" stop-color="#508AC1"/>
</linearGradient>
<linearGradient id="paint36_linear_224_2017" x1="147.714" y1="73.4169" x2="220.372" y2="44.8767" gradientUnits="userSpaceOnUse">
<stop stop-color="#381D59"/>
<stop offset="1" stop-color="#785B9C"/>
</linearGradient>
<linearGradient id="paint37_linear_224_2017" x1="157.217" y1="105.991" x2="157.397" y2="88.8012" gradientUnits="userSpaceOnUse">
<stop stop-color="#561D75"/>
<stop offset="1" stop-color="#361A46"/>
</linearGradient>
<linearGradient id="paint38_linear_224_2017" x1="97.453" y1="48.5152" x2="123.712" y2="38.2006" gradientUnits="userSpaceOnUse">
<stop stop-color="#B8E6FF"/>
<stop offset="1" stop-color="#2DB5FF"/>
</linearGradient>
<linearGradient id="paint39_linear_224_2017" x1="85.1021" y1="59.5553" x2="81.3037" y2="82.4796" gradientUnits="userSpaceOnUse">
<stop stop-color="#395283"/>
<stop offset="1" stop-color="#508AC1"/>
</linearGradient>
<linearGradient id="paint40_linear_224_2017" x1="69.6766" y1="56.9724" x2="117.439" y2="38.2112" gradientUnits="userSpaceOnUse">
<stop stop-color="#B8E6FF"/>
<stop offset="1" stop-color="#5FAFEF"/>
</linearGradient>
<linearGradient id="paint41_linear_224_2017" x1="170.501" y1="53.6368" x2="168.493" y2="44.0127" gradientUnits="userSpaceOnUse">
<stop stop-color="#395283"/>
<stop offset="1" stop-color="#508AC1"/>
</linearGradient>
</defs>
</svg>
