<svg width="110" height="110" viewBox="0 0 110 110" fill="none" xmlns="http://www.w3.org/2000/svg">
<rect width="110" height="110" rx="55" fill="#F5CC24"/>
<path fill-rule="evenodd" clip-rule="evenodd" d="M40.9883 39.0344C41.0476 38.5389 41.2235 38.064 41.502 37.6474C41.7805 37.2307 42.1538 36.8839 42.5923 36.6346C43.0308 36.3853 43.5223 36.2403 44.0277 36.2113C44.533 36.1822 45.0383 36.2698 45.5033 36.4672C47.8537 37.4574 53.1212 39.8109 59.8052 43.6127C66.4914 47.4166 71.1945 50.7385 73.2373 52.2457C74.9813 53.5348 74.9858 56.0911 73.2395 57.3845C71.2166 58.883 66.571 62.1612 59.8052 66.0132C53.0327 69.8651 47.8272 72.1902 45.4988 73.1674C43.4936 74.0115 41.2494 72.7311 40.9883 70.6001C40.6828 68.1093 40.1118 62.4535 40.1118 54.8151C40.1118 47.181 40.6806 41.5275 40.9883 39.0344Z" fill="white"/>
</svg>
